<mxfile host="app.diagrams.net" agent="Mozilla/5.0 (X11; Ubuntu; Linux x86_64; rv:131.0) Gecko/20100101 Firefox/131.0" version="24.7.17">
  <diagram id="h4c_oPhvg5Xy0MeqgZNS" name="Page-1">
    <mxGraphModel grid="1" page="1" gridSize="10" guides="1" tooltips="1" connect="1" arrows="1" fold="1" pageScale="1" pageWidth="1100" pageHeight="850" math="0" shadow="0">
      <root>
        <mxCell id="0" />
        <mxCell id="1" parent="0" />
        <mxCell id="46" value="" style="edgeStyle=none;exitX=0.964;exitY=0.061;exitDx=0;exitDy=0;endArrow=oval;endFill=1;exitPerimeter=0;" edge="1" parent="1">
          <mxGeometry relative="1" as="geometry">
            <mxPoint x="-450" y="-153" as="targetPoint" />
            <mxPoint x="-500.0000000000002" y="-152.56000000000006" as="sourcePoint" />
          </mxGeometry>
        </mxCell>
        <mxCell id="47" value="ID_Venda" style="edgeLabel;align=center;verticalAlign=middle;resizable=0;points=[];fontSize=12;" vertex="1" connectable="0" parent="46">
          <mxGeometry x="-0.6833" y="2" relative="1" as="geometry">
            <mxPoint x="78" as="offset" />
          </mxGeometry>
        </mxCell>
        <mxCell id="3Tj_bvLMt_tm9WLvLGLQ-204" value="(1,1)" style="text;html=1;align=center;verticalAlign=middle;resizable=0;points=[];autosize=1;strokeColor=none;fillColor=none;" vertex="1" parent="1">
          <mxGeometry x="-600" y="-196.5" width="50" height="30" as="geometry" />
        </mxCell>
        <mxCell id="4" value="&lt;b&gt;Fornecedor&lt;/b&gt;" style="rounded=1;whiteSpace=wrap;html=1;" vertex="1" parent="1">
          <mxGeometry x="-1050" y="-535" width="180" height="80" as="geometry" />
        </mxCell>
        <mxCell id="3Tj_bvLMt_tm9WLvLGLQ-147" value="descricao" style="text;html=1;align=center;verticalAlign=middle;resizable=0;points=[];autosize=1;strokeColor=none;fillColor=none;" vertex="1" parent="1">
          <mxGeometry x="-1227.5" y="30" width="80" height="30" as="geometry" />
        </mxCell>
        <mxCell id="50" value="" style="edgeStyle=none;exitX=1;exitY=0.5;exitDx=0;exitDy=0;endArrow=oval;endFill=0;" edge="1" parent="1">
          <mxGeometry relative="1" as="geometry">
            <mxPoint x="-450" y="-120" as="targetPoint" />
            <mxPoint x="-500" y="-120" as="sourcePoint" />
          </mxGeometry>
        </mxCell>
        <mxCell id="51" value="ID_Cliente" style="edgeLabel;align=center;verticalAlign=middle;resizable=0;points=[];fontSize=12;" vertex="1" connectable="0" parent="50">
          <mxGeometry x="-0.4584" y="-1" relative="1" as="geometry">
            <mxPoint x="74" y="-1" as="offset" />
          </mxGeometry>
        </mxCell>
        <mxCell id="104" value="" style="edgeStyle=none;endArrow=oval;endFill=1;exitX=0.946;exitY=0.97;exitDx=0;exitDy=0;exitPerimeter=0;" edge="1" parent="1">
          <mxGeometry relative="1" as="geometry">
            <mxPoint x="-142" y="-338" as="targetPoint" />
            <mxPoint x="-169.7199999999998" y="-365.7" as="sourcePoint" />
            <Array as="points">
              <mxPoint x="-169" y="-338" />
            </Array>
          </mxGeometry>
        </mxCell>
        <mxCell id="81" value="" style="edgeStyle=none;exitX=0.996;exitY=0.333;exitDx=0;exitDy=0;endArrow=oval;endFill=0;exitPerimeter=0;" edge="1" parent="1" source="87">
          <mxGeometry relative="1" as="geometry">
            <mxPoint x="-160" as="targetPoint" />
            <mxPoint x="-200" y="3" as="sourcePoint" />
          </mxGeometry>
        </mxCell>
        <mxCell id="82" value="nome" style="edgeLabel;align=center;verticalAlign=middle;resizable=0;points=[];" vertex="1" connectable="0" parent="81">
          <mxGeometry x="-0.3874" y="-1" relative="1" as="geometry">
            <mxPoint x="47" y="-3" as="offset" />
          </mxGeometry>
        </mxCell>
        <mxCell id="0jXfrChw-r6oneS9u3Ee-132" style="edgeStyle=none;html=1;exitX=0.106;exitY=0.984;exitDx=0;exitDy=0;endArrow=oval;endFill=0;entryX=0.165;entryY=-0.074;entryDx=0;entryDy=0;entryPerimeter=0;exitPerimeter=0;" edge="1" parent="1" source="0jXfrChw-r6oneS9u3Ee-122">
          <mxGeometry relative="1" as="geometry">
            <mxPoint x="-965.95" y="87.77999999999997" as="targetPoint" />
            <mxPoint x="-938" y="64" as="sourcePoint" />
            <Array as="points" />
          </mxGeometry>
        </mxCell>
        <mxCell id="11" value="" style="edgeStyle=none;exitX=0.909;exitY=0.98;exitDx=0;exitDy=0;endArrow=oval;endFill=0;exitPerimeter=0;" edge="1" parent="1">
          <mxGeometry relative="1" as="geometry">
            <mxPoint x="-604" y="-470" as="targetPoint" />
            <mxPoint x="-635.3800000000001" y="-518.8" as="sourcePoint" />
            <Array as="points">
              <mxPoint x="-634" y="-470" />
            </Array>
          </mxGeometry>
        </mxCell>
        <mxCell id="12" value="Nome" style="edgeLabel;align=center;verticalAlign=middle;resizable=0;points=[];" vertex="1" connectable="0" parent="11">
          <mxGeometry x="0.5448" y="2" relative="1" as="geometry">
            <mxPoint x="39" y="1" as="offset" />
          </mxGeometry>
        </mxCell>
        <mxCell id="QC1EbUprVl7dpRZCjpVZ-153" value="(n,n)" style="text;html=1;align=center;verticalAlign=middle;resizable=0;points=[];autosize=1;strokeColor=none;fillColor=none;" vertex="1" parent="1">
          <mxGeometry x="-730" y="-176.5" width="50" height="30" as="geometry" />
        </mxCell>
        <mxCell id="17" style="edgeStyle=none;html=1;exitX=1.005;exitY=0.386;exitDx=0;exitDy=0;endArrow=oval;endFill=0;exitPerimeter=0;" edge="1" parent="1">
          <mxGeometry relative="1" as="geometry">
            <mxPoint x="-420" y="-570" as="targetPoint" />
            <mxPoint x="-465.0999999999999" y="-570.26" as="sourcePoint" />
          </mxGeometry>
        </mxCell>
        <mxCell id="18" value="Quantidade_Estoque" style="edgeLabel;align=center;verticalAlign=middle;resizable=0;points=[];" vertex="1" connectable="0" parent="17">
          <mxGeometry x="-0.5748" y="-1" relative="1" as="geometry">
            <mxPoint x="92" y="-2" as="offset" />
          </mxGeometry>
        </mxCell>
        <mxCell id="13" value="" style="edgeStyle=none;endArrow=oval;endFill=0;exitX=0.999;exitY=0.168;exitDx=0;exitDy=0;exitPerimeter=0;" edge="1" parent="1">
          <mxGeometry relative="1" as="geometry">
            <mxPoint x="-420" y="-581" as="targetPoint" />
            <mxPoint x="-465.17999999999984" y="-580.88" as="sourcePoint" />
          </mxGeometry>
        </mxCell>
        <mxCell id="14" value="Descrição" style="edgeLabel;align=center;verticalAlign=middle;resizable=0;points=[];" vertex="1" connectable="0" parent="13">
          <mxGeometry x="0.3927" relative="1" as="geometry">
            <mxPoint x="43" y="-1" as="offset" />
          </mxGeometry>
        </mxCell>
        <mxCell id="15" value="" style="edgeStyle=none;exitX=0.973;exitY=0.96;exitDx=0;exitDy=0;endArrow=oval;endFill=0;exitPerimeter=0;" edge="1" parent="1">
          <mxGeometry relative="1" as="geometry">
            <mxPoint x="-420" y="-545" as="targetPoint" />
            <mxPoint x="-465.00000000000034" y="-544.6" as="sourcePoint" />
          </mxGeometry>
        </mxCell>
        <mxCell id="16" value="Preço" style="edgeLabel;align=center;verticalAlign=middle;resizable=0;points=[];" vertex="1" connectable="0" parent="15">
          <mxGeometry x="0.5027" relative="1" as="geometry">
            <mxPoint x="31" y="-1" as="offset" />
          </mxGeometry>
        </mxCell>
        <mxCell id="43" value="" style="edgeStyle=none;exitX=0.5;exitY=1;exitDx=0;exitDy=0;endArrow=oval;endFill=0;" edge="1" parent="1" source="4">
          <mxGeometry relative="1" as="geometry">
            <mxPoint x="-960" y="-425" as="targetPoint" />
            <mxPoint x="-1000" y="-365" as="sourcePoint" />
          </mxGeometry>
        </mxCell>
        <mxCell id="44" value="Data_Contrato" style="edgeLabel;align=center;verticalAlign=middle;resizable=0;points=[];" vertex="1" connectable="0" parent="43">
          <mxGeometry x="-0.1662" y="-1" relative="1" as="geometry">
            <mxPoint x="11" y="32" as="offset" />
          </mxGeometry>
        </mxCell>
        <mxCell id="58" value="" style="edgeStyle=none;exitX=0;exitY=0.75;exitDx=0;exitDy=0;endArrow=oval;endFill=0;" edge="1" parent="1" source="2">
          <mxGeometry relative="1" as="geometry">
            <mxPoint x="-680" y="-111" as="targetPoint" />
          </mxGeometry>
        </mxCell>
        <mxCell id="59" value="Valor_Total" style="edgeLabel;align=center;verticalAlign=middle;resizable=0;points=[];fontSize=12;" connectable="0" vertex="1" parent="58">
          <mxGeometry x="-0.3143" y="1" relative="1" as="geometry">
            <mxPoint x="267" y="-60" as="offset" />
          </mxGeometry>
        </mxCell>
        <mxCell id="3" value="&lt;b&gt;Medicamento&lt;/b&gt;" style="rounded=1;whiteSpace=wrap;html=1;" vertex="1" parent="1">
          <mxGeometry x="-645" y="-605" width="180" height="90" as="geometry" />
        </mxCell>
        <mxCell id="29" value="" style="edgeStyle=none;endArrow=oval;endFill=1;" edge="1" parent="1">
          <mxGeometry relative="1" as="geometry">
            <mxPoint x="-825" y="-505" as="targetPoint" />
            <mxPoint x="-870" y="-505" as="sourcePoint" />
          </mxGeometry>
        </mxCell>
        <mxCell id="30" value="ID_Fornecedor" style="edgeLabel;align=center;verticalAlign=middle;resizable=0;points=[];" vertex="1" connectable="0" parent="29">
          <mxGeometry x="-0.4558" y="-3" relative="1" as="geometry">
            <mxPoint x="79" y="-3" as="offset" />
          </mxGeometry>
        </mxCell>
        <mxCell id="33" value="" style="edgeStyle=none;exitX=1;exitY=0.5;exitDx=0;exitDy=0;endArrow=oval;endFill=0;" edge="1" parent="1">
          <mxGeometry relative="1" as="geometry">
            <mxPoint x="-830" y="-480" as="targetPoint" />
            <mxPoint x="-870" y="-479.99999999999994" as="sourcePoint" />
          </mxGeometry>
        </mxCell>
        <mxCell id="34" value="CNPJ" style="edgeLabel;align=center;verticalAlign=middle;resizable=0;points=[];" vertex="1" connectable="0" parent="33">
          <mxGeometry x="-0.5818" relative="1" as="geometry">
            <mxPoint x="62" as="offset" />
          </mxGeometry>
        </mxCell>
        <mxCell id="QC1EbUprVl7dpRZCjpVZ-169" value="(1,1)" style="text;html=1;align=center;verticalAlign=middle;resizable=0;points=[];autosize=1;strokeColor=none;fillColor=none;" vertex="1" parent="1">
          <mxGeometry x="-1365" y="-470" width="50" height="30" as="geometry" />
        </mxCell>
        <mxCell id="37" value="" style="edgeStyle=none;exitX=0.861;exitY=1.025;exitDx=0;exitDy=0;endArrow=oval;endFill=0;exitPerimeter=0;" edge="1" parent="1">
          <mxGeometry relative="1" as="geometry">
            <mxPoint x="-830" y="-522" as="targetPoint" />
            <mxPoint x="-870" y="-522" as="sourcePoint" />
          </mxGeometry>
        </mxCell>
        <mxCell id="38" value="Email" style="edgeLabel;align=center;verticalAlign=middle;resizable=0;points=[];" vertex="1" connectable="0" parent="37">
          <mxGeometry x="-0.4021" y="-2" relative="1" as="geometry">
            <mxPoint x="47" y="-3" as="offset" />
          </mxGeometry>
        </mxCell>
        <mxCell id="39" value="" style="edgeStyle=none;exitX=0.946;exitY=1;exitDx=0;exitDy=0;endArrow=oval;endFill=0;exitPerimeter=0;" edge="1" parent="1" source="4">
          <mxGeometry relative="1" as="geometry">
            <mxPoint x="-880" y="-410" as="targetPoint" />
            <Array as="points" />
          </mxGeometry>
        </mxCell>
        <mxCell id="40" value="Endereço" style="edgeLabel;align=center;verticalAlign=middle;resizable=0;points=[];" vertex="1" connectable="0" parent="39">
          <mxGeometry x="-0.3023" y="1" relative="1" as="geometry">
            <mxPoint x="1" y="41" as="offset" />
          </mxGeometry>
        </mxCell>
        <mxCell id="56" style="edgeStyle=none;html=1;exitX=0.882;exitY=1.026;exitDx=0;exitDy=0;endArrow=oval;endFill=0;exitPerimeter=0;" edge="1" parent="1">
          <mxGeometry relative="1" as="geometry">
            <mxPoint x="-481" y="-62" as="targetPoint" />
            <mxPoint x="-522.24" y="-91.42000000000007" as="sourcePoint" />
            <Array as="points">
              <mxPoint x="-521" y="-62" />
            </Array>
          </mxGeometry>
        </mxCell>
        <mxCell id="57" value="Quantidade" style="edgeLabel;align=center;verticalAlign=middle;resizable=0;points=[];fontSize=12;" vertex="1" connectable="0" parent="56">
          <mxGeometry x="0.44" y="-2" relative="1" as="geometry">
            <mxPoint x="56" y="-3" as="offset" />
          </mxGeometry>
        </mxCell>
        <mxCell id="45" value="" style="edgeStyle=none;exitX=0.088;exitY=0.995;exitDx=0;exitDy=0;endArrow=oval;endFill=0;exitPerimeter=0;" edge="1" parent="1" source="4">
          <mxGeometry x="1" y="-30" relative="1" as="geometry">
            <mxPoint x="-1034" y="-410" as="targetPoint" />
            <mxPoint x="29" y="22" as="offset" />
          </mxGeometry>
        </mxCell>
        <mxCell id="52" value="" style="edgeStyle=none;exitX=1;exitY=0.75;exitDx=0;exitDy=0;endArrow=oval;endFill=0;" edge="1" parent="1">
          <mxGeometry relative="1" as="geometry">
            <mxPoint x="-450" y="-100" as="targetPoint" />
            <mxPoint x="-500.00000000000045" y="-100" as="sourcePoint" />
          </mxGeometry>
        </mxCell>
        <mxCell id="54" value="" style="edgeStyle=none;exitX=0.998;exitY=0.631;exitDx=0;exitDy=0;endArrow=oval;endFill=0;exitPerimeter=0;" edge="1" parent="1" source="2">
          <mxGeometry relative="1" as="geometry">
            <mxPoint x="-450" y="-80" as="targetPoint" />
            <mxPoint x="-519.9999999999997" y="-85.3599999999999" as="sourcePoint" />
            <Array as="points">
              <mxPoint x="-500" y="-80" />
            </Array>
          </mxGeometry>
        </mxCell>
        <mxCell id="JHY4PqAcSEw5rTKC_Vk5-121" value="ID_Medicamento" style="edgeLabel;align=center;verticalAlign=middle;resizable=0;points=[];fontSize=12;" connectable="0" vertex="1" parent="54">
          <mxGeometry x="-0.2938" relative="1" as="geometry">
            <mxPoint x="106" y="9" as="offset" />
          </mxGeometry>
        </mxCell>
        <mxCell id="77" value="" style="edgeStyle=none;exitX=1;exitY=0.66;exitDx=0;exitDy=0;endArrow=oval;endFill=0;exitPerimeter=0;" edge="1" parent="1">
          <mxGeometry relative="1" as="geometry">
            <mxPoint x="-160" y="30" as="targetPoint" />
            <mxPoint x="-200" y="29.399999999999864" as="sourcePoint" />
          </mxGeometry>
        </mxCell>
        <mxCell id="78" value="Telefone" style="edgeLabel;align=center;verticalAlign=middle;resizable=0;points=[];" vertex="1" connectable="0" parent="77">
          <mxGeometry x="-0.5748" y="-1" relative="1" as="geometry">
            <mxPoint x="56" y="-2" as="offset" />
          </mxGeometry>
        </mxCell>
        <mxCell id="0jXfrChw-r6oneS9u3Ee-146" value="Compra" style="rhombus;whiteSpace=wrap;html=1;" vertex="1" parent="1">
          <mxGeometry x="-310" y="-211.5" width="170" height="80" as="geometry" />
        </mxCell>
        <mxCell id="31" value="" style="edgeStyle=none;exitX=1;exitY=0.25;exitDx=0;exitDy=0;endArrow=oval;endFill=0;" edge="1" parent="1">
          <mxGeometry relative="1" as="geometry">
            <mxPoint x="-830" y="-493" as="targetPoint" />
            <mxPoint x="-870" y="-492.99999999999994" as="sourcePoint" />
          </mxGeometry>
        </mxCell>
        <mxCell id="32" value="Nome" style="edgeLabel;align=center;verticalAlign=middle;resizable=0;points=[];" vertex="1" connectable="0" parent="31">
          <mxGeometry x="-0.4571" y="-3" relative="1" as="geometry">
            <mxPoint x="49" y="-3" as="offset" />
          </mxGeometry>
        </mxCell>
        <mxCell id="0jXfrChw-r6oneS9u3Ee-138" value="id_hospital" style="text;html=1;align=center;verticalAlign=middle;resizable=0;points=[];autosize=1;strokeColor=none;fillColor=none;" vertex="1" parent="1">
          <mxGeometry x="-1195" y="-545" width="80" height="30" as="geometry" />
        </mxCell>
        <mxCell id="106" style="edgeStyle=none;html=1;endArrow=oval;endFill=0;exitX=0.28;exitY=1.004;exitDx=0;exitDy=0;exitPerimeter=0;" edge="1" parent="1">
          <mxGeometry relative="1" as="geometry">
            <mxPoint x="-281" y="-325.5" as="targetPoint" />
            <mxPoint x="-296.5999999999999" y="-364.64000000000004" as="sourcePoint" />
            <Array as="points">
              <mxPoint x="-296" y="-325.5" />
            </Array>
          </mxGeometry>
        </mxCell>
        <mxCell id="107" value="email" style="edgeLabel;align=center;verticalAlign=middle;resizable=0;points=[];" vertex="1" connectable="0" parent="106">
          <mxGeometry x="0.2885" y="-2" relative="1" as="geometry">
            <mxPoint x="14" y="14" as="offset" />
          </mxGeometry>
        </mxCell>
        <mxCell id="35" value="" style="edgeStyle=none;exitX=1;exitY=0.75;exitDx=0;exitDy=0;endArrow=oval;endFill=0;" edge="1" parent="1">
          <mxGeometry relative="1" as="geometry">
            <mxPoint x="-830" y="-466" as="targetPoint" />
            <mxPoint x="-870" y="-465.99999999999994" as="sourcePoint" />
          </mxGeometry>
        </mxCell>
        <mxCell id="36" value="Telefone" style="edgeLabel;align=center;verticalAlign=middle;resizable=0;points=[];" vertex="1" connectable="0" parent="35">
          <mxGeometry x="-0.4909" y="-3" relative="1" as="geometry">
            <mxPoint x="60" y="-3" as="offset" />
          </mxGeometry>
        </mxCell>
        <mxCell id="A4WGX2mWT120Y1MOlDbz-120" style="edgeStyle=orthogonalEdgeStyle;rounded=0;orthogonalLoop=1;jettySize=auto;html=1;exitX=0.468;exitY=0.997;exitDx=0;exitDy=0;endArrow=none;endFill=0;entryX=0;entryY=0.5;entryDx=0;entryDy=0;exitPerimeter=0;" edge="1" parent="1" source="0jXfrChw-r6oneS9u3Ee-117" target="eocvYtC5DC_iUky7DLq_-112">
          <mxGeometry relative="1" as="geometry">
            <mxPoint x="-1375" y="-379.5" as="targetPoint" />
          </mxGeometry>
        </mxCell>
        <mxCell id="0jXfrChw-r6oneS9u3Ee-117" value="&lt;b&gt;Hospital&lt;/b&gt;" style="rounded=1;whiteSpace=wrap;html=1;" vertex="1" parent="1">
          <mxGeometry x="-1440" y="-552" width="180" height="90" as="geometry" />
        </mxCell>
        <mxCell id="87" value="&lt;b&gt;Cliente&lt;/b&gt;" style="rounded=1;whiteSpace=wrap;html=1;" vertex="1" parent="1">
          <mxGeometry x="-380" y="-30" width="180" height="90" as="geometry" />
        </mxCell>
        <mxCell id="3Tj_bvLMt_tm9WLvLGLQ-205" style="edgeStyle=orthogonalEdgeStyle;rounded=0;orthogonalLoop=1;jettySize=auto;html=1;exitX=0.5;exitY=1;exitDx=0;exitDy=0;entryX=0;entryY=0.5;entryDx=0;entryDy=0;endArrow=none;endFill=0;" edge="1" parent="1" source="2" target="87">
          <mxGeometry relative="1" as="geometry" />
        </mxCell>
        <mxCell id="0jXfrChw-r6oneS9u3Ee-141" value="(1,n)" style="edgeLabel;html=1;align=center;verticalAlign=middle;resizable=0;points=[];" connectable="0" vertex="1" parent="3Tj_bvLMt_tm9WLvLGLQ-205">
          <mxGeometry x="0.8378" y="-5" relative="1" as="geometry">
            <mxPoint x="6" y="10" as="offset" />
          </mxGeometry>
        </mxCell>
        <mxCell id="0jXfrChw-r6oneS9u3Ee-142" value="(1,1)" style="edgeLabel;html=1;align=center;verticalAlign=middle;resizable=0;points=[];" connectable="0" vertex="1" parent="3Tj_bvLMt_tm9WLvLGLQ-205">
          <mxGeometry x="-0.9165" y="-2" relative="1" as="geometry">
            <mxPoint x="22" y="-2" as="offset" />
          </mxGeometry>
        </mxCell>
        <mxCell id="83" value="" style="edgeStyle=none;exitX=0.947;exitY=0.003;exitDx=0;exitDy=0;endArrow=oval;endFill=1;exitPerimeter=0;" edge="1" parent="1">
          <mxGeometry relative="1" as="geometry">
            <mxPoint x="-160.46" y="-12" as="targetPoint" />
            <mxPoint x="-199.99999999999997" y="-11.730000000000132" as="sourcePoint" />
          </mxGeometry>
        </mxCell>
        <mxCell id="84" value="id_cliente" style="edgeLabel;align=center;verticalAlign=middle;resizable=0;points=[];labelBorderColor=none;labelBackgroundColor=#FFFFFF;" vertex="1" connectable="0" parent="83">
          <mxGeometry x="-0.578" y="-3" relative="1" as="geometry">
            <mxPoint x="60" y="-5" as="offset" />
          </mxGeometry>
        </mxCell>
        <mxCell id="3Tj_bvLMt_tm9WLvLGLQ-129" style="edgeStyle=orthogonalEdgeStyle;rounded=0;orthogonalLoop=1;jettySize=auto;html=1;exitX=0.994;exitY=0.186;exitDx=0;exitDy=0;endArrow=oval;endFill=0;exitPerimeter=0;" edge="1" parent="1" source="3Tj_bvLMt_tm9WLvLGLQ-128" target="3Tj_bvLMt_tm9WLvLGLQ-131">
          <mxGeometry relative="1" as="geometry">
            <mxPoint x="-927.5" y="-263.56" as="targetPoint" />
            <Array as="points">
              <mxPoint x="-957.5" y="-256.56" />
              <mxPoint x="-957.5" y="-268.56" />
            </Array>
          </mxGeometry>
        </mxCell>
        <mxCell id="19" style="edgeStyle=none;html=1;exitX=1;exitY=0.5;exitDx=0;exitDy=0;endArrow=oval;endFill=0;" edge="1" parent="1">
          <mxGeometry relative="1" as="geometry">
            <mxPoint x="-420" y="-557" as="targetPoint" />
            <mxPoint x="-465" y="-557" as="sourcePoint" />
          </mxGeometry>
        </mxCell>
        <mxCell id="20" value="Validade" style="edgeLabel;align=center;verticalAlign=middle;resizable=0;points=[];html=1;" vertex="1" connectable="0" parent="19">
          <mxGeometry x="-0.3878" y="-3" relative="1" as="geometry">
            <mxPoint x="58" y="-3" as="offset" />
          </mxGeometry>
        </mxCell>
        <mxCell id="3Tj_bvLMt_tm9WLvLGLQ-145" value="receita" style="text;html=1;align=center;verticalAlign=middle;resizable=0;points=[];autosize=1;strokeColor=none;fillColor=none;" vertex="1" parent="1">
          <mxGeometry x="-1217.5" y="-1.5599999999999454" width="60" height="30" as="geometry" />
        </mxCell>
        <mxCell id="0jXfrChw-r6oneS9u3Ee-156" style="edgeStyle=orthogonalEdgeStyle;rounded=0;orthogonalLoop=1;jettySize=auto;html=1;exitX=1;exitY=0.5;exitDx=0;exitDy=0;entryX=0;entryY=0.5;entryDx=0;entryDy=0;endArrow=none;endFill=0;" edge="1" parent="1" source="0jXfrChw-r6oneS9u3Ee-155" target="3Tj_bvLMt_tm9WLvLGLQ-191">
          <mxGeometry relative="1" as="geometry" />
        </mxCell>
        <mxCell id="YscDw6zFbjl7nn_wglCq-112" value="(1,n)" style="edgeLabel;html=1;align=center;verticalAlign=middle;resizable=0;points=[];" connectable="0" vertex="1" parent="0jXfrChw-r6oneS9u3Ee-156">
          <mxGeometry x="0.3969" y="4" relative="1" as="geometry">
            <mxPoint x="7" y="-6" as="offset" />
          </mxGeometry>
        </mxCell>
        <mxCell id="A4WGX2mWT120Y1MOlDbz-117" style="edgeStyle=orthogonalEdgeStyle;rounded=0;orthogonalLoop=1;jettySize=auto;html=1;endArrow=oval;endFill=0;" edge="1" parent="1">
          <mxGeometry relative="1" as="geometry">
            <mxPoint x="-450" y="-209.55999999999995" as="targetPoint" />
            <mxPoint x="-520" y="-176" as="sourcePoint" />
            <Array as="points">
              <mxPoint x="-520" y="-171" />
              <mxPoint x="-520" y="-210" />
            </Array>
          </mxGeometry>
        </mxCell>
        <mxCell id="2" value="&lt;b&gt;Venda&lt;/b&gt;" style="rounded=1;whiteSpace=wrap;html=1;" vertex="1" parent="1">
          <mxGeometry x="-680" y="-171.5" width="180" height="80" as="geometry" />
        </mxCell>
        <mxCell id="3Tj_bvLMt_tm9WLvLGLQ-191" value="&lt;b&gt;Tipo de Serviço&lt;br&gt;&lt;/b&gt;" style="rounded=1;whiteSpace=wrap;html=1;" vertex="1" parent="1">
          <mxGeometry x="160" y="-70" width="180" height="90" as="geometry" />
        </mxCell>
        <mxCell id="0jXfrChw-r6oneS9u3Ee-120" style="edgeStyle=none;html=1;endArrow=oval;endFill=1;strokeColor=#000000;fillColor=#dae8fc;exitX=0.944;exitY=0.973;exitDx=0;exitDy=0;exitPerimeter=0;" edge="1" parent="1" source="0jXfrChw-r6oneS9u3Ee-122">
          <mxGeometry relative="1" as="geometry">
            <mxPoint x="-813" y="95" as="targetPoint" />
            <mxPoint x="-807.8799999999999" y="59.24000000000012" as="sourcePoint" />
            <Array as="points" />
          </mxGeometry>
        </mxCell>
        <mxCell id="3Tj_bvLMt_tm9WLvLGLQ-132" style="edgeStyle=orthogonalEdgeStyle;rounded=0;orthogonalLoop=1;jettySize=auto;html=1;exitX=0.994;exitY=0.338;exitDx=0;exitDy=0;endArrow=oval;endFill=0;exitPerimeter=0;" edge="1" parent="1" source="3Tj_bvLMt_tm9WLvLGLQ-128" target="3Tj_bvLMt_tm9WLvLGLQ-133">
          <mxGeometry relative="1" as="geometry">
            <mxPoint x="-917.5" y="-228.27428571428567" as="targetPoint" />
            <Array as="points">
              <mxPoint x="-977.5" y="-243.56" />
              <mxPoint x="-957.5" y="-243.56" />
              <mxPoint x="-957.5" y="-238.56" />
            </Array>
          </mxGeometry>
        </mxCell>
        <mxCell id="25" value="" style="edgeStyle=none;endArrow=oval;endFill=0;exitX=0.997;exitY=0.834;exitDx=0;exitDy=0;exitPerimeter=0;" edge="1" parent="1" source="3">
          <mxGeometry relative="1" as="geometry">
            <mxPoint x="-420" y="-530" as="targetPoint" />
            <mxPoint x="-460" y="-530" as="sourcePoint" />
          </mxGeometry>
        </mxCell>
        <mxCell id="26" value="ID_Categoria" style="edgeLabel;align=center;verticalAlign=middle;resizable=0;points=[];" connectable="0" vertex="1" parent="25">
          <mxGeometry x="0.2885" y="-2" relative="1" as="geometry">
            <mxPoint x="56" y="-2" as="offset" />
          </mxGeometry>
        </mxCell>
        <mxCell id="3Tj_bvLMt_tm9WLvLGLQ-182" style="edgeStyle=orthogonalEdgeStyle;rounded=0;orthogonalLoop=1;jettySize=auto;html=1;exitX=0.998;exitY=0.36;exitDx=0;exitDy=0;exitPerimeter=0;endArrow=oval;endFill=0;" edge="1" parent="1" source="3Tj_bvLMt_tm9WLvLGLQ-191" target="3Tj_bvLMt_tm9WLvLGLQ-186">
          <mxGeometry relative="1" as="geometry">
            <Array as="points">
              <mxPoint x="350" y="-38" />
              <mxPoint x="350" y="-25" />
            </Array>
            <mxPoint x="340.3599999999999" y="-37.48000000000002" as="sourcePoint" />
          </mxGeometry>
        </mxCell>
        <mxCell id="YscDw6zFbjl7nn_wglCq-111" value="(1,1)" style="text;html=1;align=center;verticalAlign=middle;resizable=0;points=[];autosize=1;strokeColor=none;fillColor=none;" vertex="1" parent="1">
          <mxGeometry x="-300" y="-55" width="50" height="30" as="geometry" />
        </mxCell>
        <mxCell id="kwLEIUsejKFiPvClbxMu-200" style="edgeStyle=none;html=1;endArrow=oval;endFill=0;" edge="1" parent="1">
          <mxGeometry relative="1" as="geometry">
            <mxPoint x="-205" y="-325.5" as="targetPoint" />
            <mxPoint x="-220" y="-365" as="sourcePoint" />
            <Array as="points">
              <mxPoint x="-220" y="-325.5" />
            </Array>
          </mxGeometry>
        </mxCell>
        <mxCell id="75" value="" style="edgeStyle=none;exitX=0.999;exitY=0.89;exitDx=0;exitDy=0;endArrow=oval;endFill=0;exitPerimeter=0;" edge="1" parent="1">
          <mxGeometry relative="1" as="geometry">
            <mxPoint x="-160" y="50" as="targetPoint" />
            <mxPoint x="-200.17999999999984" y="50.10000000000002" as="sourcePoint" />
          </mxGeometry>
        </mxCell>
        <mxCell id="76" value="Email" style="edgeLabel;align=center;verticalAlign=middle;resizable=0;points=[];" vertex="1" connectable="0" parent="75">
          <mxGeometry x="0.5027" relative="1" as="geometry">
            <mxPoint x="28" y="-2" as="offset" />
          </mxGeometry>
        </mxCell>
        <mxCell id="3Tj_bvLMt_tm9WLvLGLQ-173" style="edgeStyle=orthogonalEdgeStyle;rounded=0;orthogonalLoop=1;jettySize=auto;html=1;endArrow=oval;endFill=0;exitX=1;exitY=0.368;exitDx=0;exitDy=0;exitPerimeter=0;" edge="1" parent="1" source="3Tj_bvLMt_tm9WLvLGLQ-190" target="3Tj_bvLMt_tm9WLvLGLQ-177">
          <mxGeometry relative="1" as="geometry">
            <Array as="points">
              <mxPoint x="170" y="-198.5" />
              <mxPoint x="170" y="-186.5" />
            </Array>
            <mxPoint x="150.41999999999985" y="-203.13999999999987" as="sourcePoint" />
          </mxGeometry>
        </mxCell>
        <mxCell id="3Tj_bvLMt_tm9WLvLGLQ-194" value="(1,n)" style="text;html=1;align=center;verticalAlign=middle;resizable=0;points=[];autosize=1;strokeColor=none;fillColor=none;" vertex="1" parent="1">
          <mxGeometry x="-1000" y="-560" width="50" height="30" as="geometry" />
        </mxCell>
        <mxCell id="92" value="" style="edgeStyle=none;endArrow=oval;endFill=0;exitX=0.813;exitY=0.989;exitDx=0;exitDy=0;exitPerimeter=0;" edge="1" parent="1" source="108">
          <mxGeometry relative="1" as="geometry">
            <mxPoint x="-180" y="-325" as="targetPoint" />
            <mxPoint x="-192.75999999999976" y="-361.71000000000004" as="sourcePoint" />
            <Array as="points">
              <mxPoint x="-193" y="-325" />
            </Array>
          </mxGeometry>
        </mxCell>
        <mxCell id="93" value="data_admissao" style="edgeLabel;align=center;verticalAlign=middle;resizable=0;points=[];" vertex="1" connectable="0" parent="92">
          <mxGeometry x="0.5448" y="2" relative="1" as="geometry">
            <mxPoint x="42" y="12" as="offset" />
          </mxGeometry>
        </mxCell>
        <mxCell id="kwLEIUsejKFiPvClbxMu-206" value="&lt;span style=&quot;font-size: 11px; background-color: rgb(255, 255, 255);&quot;&gt;turno&lt;/span&gt;" style="text;html=1;align=center;verticalAlign=middle;resizable=0;points=[];autosize=1;strokeColor=none;fillColor=none;" vertex="1" parent="1">
          <mxGeometry x="-230" y="-330" width="50" height="30" as="geometry" />
        </mxCell>
        <mxCell id="9" style="edgeStyle=none;html=1;endArrow=oval;endFill=1;fontStyle=1;exitX=0.115;exitY=0.99;exitDx=0;exitDy=0;exitPerimeter=0;" edge="1" parent="1">
          <mxGeometry relative="1" as="geometry">
            <mxPoint x="-607" y="-490.58000000000004" as="targetPoint" />
            <mxPoint x="-624.3" y="-514.9000000000001" as="sourcePoint" />
            <Array as="points">
              <mxPoint x="-624" y="-490.58000000000004" />
            </Array>
          </mxGeometry>
        </mxCell>
        <mxCell id="10" value="ID_Medicamento&#xa;" style="edgeLabel;align=center;verticalAlign=middle;resizable=0;points=[];" vertex="1" connectable="0" parent="9">
          <mxGeometry x="0.5443" y="-2" relative="1" as="geometry">
            <mxPoint x="58" y="4" as="offset" />
          </mxGeometry>
        </mxCell>
        <mxCell id="3Tj_bvLMt_tm9WLvLGLQ-179" value="id_cliente" style="text;html=1;align=center;verticalAlign=middle;resizable=0;points=[];autosize=1;strokeColor=none;fillColor=none;" vertex="1" parent="1">
          <mxGeometry x="210" y="-161.5" width="70" height="30" as="geometry" />
        </mxCell>
        <mxCell id="7" value="" style="edgeStyle=none;endArrow=oval;endFill=0;exitX=0;exitY=0.75;exitDx=0;exitDy=0;" edge="1" parent="1">
          <mxGeometry relative="1" as="geometry">
            <mxPoint x="-590" y="-455" as="targetPoint" />
            <Array as="points">
              <mxPoint x="-645" y="-455.5" />
            </Array>
            <mxPoint x="-645" y="-530.5" as="sourcePoint" />
          </mxGeometry>
        </mxCell>
        <mxCell id="8" value="Receita_Necessária&#xa;" style="edgeLabel;align=center;verticalAlign=middle;resizable=0;points=[];" vertex="1" connectable="0" parent="7">
          <mxGeometry x="0.3414" y="-2" relative="1" as="geometry">
            <mxPoint x="98" y="5" as="offset" />
          </mxGeometry>
        </mxCell>
        <mxCell id="0jXfrChw-r6oneS9u3Ee-129" value="ID_filial" style="text;html=1;align=center;verticalAlign=middle;resizable=0;points=[];autosize=1;strokeColor=none;fillColor=none;" vertex="1" parent="1">
          <mxGeometry x="-819" y="81" width="60" height="30" as="geometry" />
        </mxCell>
        <mxCell id="98" value="" style="edgeStyle=elbowEdgeStyle;exitX=0.5;exitY=0.056;exitDx=0;exitDy=0;endArrow=oval;endFill=0;exitPerimeter=0;elbow=vertical;" edge="1" parent="1" source="108">
          <mxGeometry relative="1" as="geometry">
            <mxPoint x="-230" y="-483.5" as="targetPoint" />
            <mxPoint x="-250.00000000000023" y="-458.5" as="sourcePoint" />
            <Array as="points">
              <mxPoint x="-240" y="-483.5" />
            </Array>
          </mxGeometry>
        </mxCell>
        <mxCell id="99" value="endereco" style="edgeLabel;align=center;verticalAlign=middle;resizable=0;points=[];" vertex="1" connectable="0" parent="98">
          <mxGeometry x="-0.5748" y="-1" relative="1" as="geometry">
            <mxPoint x="9" y="-45" as="offset" />
          </mxGeometry>
        </mxCell>
        <mxCell id="79" value="" style="edgeStyle=none;exitX=0.987;exitY=0.504;exitDx=0;exitDy=0;endArrow=oval;endFill=0;exitPerimeter=0;" edge="1" parent="1">
          <mxGeometry relative="1" as="geometry">
            <mxPoint x="-160" y="15" as="targetPoint" />
            <mxPoint x="-199.9999999999997" y="15.180000000000064" as="sourcePoint" />
          </mxGeometry>
        </mxCell>
        <mxCell id="80" value="cpf" style="edgeLabel;align=center;verticalAlign=middle;resizable=0;points=[];" vertex="1" connectable="0" parent="79">
          <mxGeometry x="-0.3878" y="-3" relative="1" as="geometry">
            <mxPoint x="40" y="-5" as="offset" />
          </mxGeometry>
        </mxCell>
        <mxCell id="108" value="&lt;b&gt;Funcionario&lt;/b&gt;" style="rounded=1;whiteSpace=wrap;html=1;" vertex="1" parent="1">
          <mxGeometry x="-340" y="-455" width="180" height="90" as="geometry" />
        </mxCell>
        <mxCell id="UkZEv0jV3Z5FbrsgkqRG-112" value="" style="edgeStyle=orthogonalEdgeStyle;rounded=0;orthogonalLoop=1;jettySize=auto;html=1;exitX=1;exitY=0.5;exitDx=0;exitDy=0;entryX=0.5;entryY=0;entryDx=0;entryDy=0;endArrow=none;endFill=0;" edge="1" parent="1" source="108" target="UkZEv0jV3Z5FbrsgkqRG-111">
          <mxGeometry relative="1" as="geometry">
            <mxPoint x="-160" y="-410" as="sourcePoint" />
            <mxPoint x="20" y="-230" as="targetPoint" />
          </mxGeometry>
        </mxCell>
        <mxCell id="0jXfrChw-r6oneS9u3Ee-161" value="(1,1)" style="edgeLabel;html=1;align=center;verticalAlign=middle;resizable=0;points=[];" connectable="0" vertex="1" parent="UkZEv0jV3Z5FbrsgkqRG-112">
          <mxGeometry x="-0.8108" y="-2" relative="1" as="geometry">
            <mxPoint x="-1" y="-11" as="offset" />
          </mxGeometry>
        </mxCell>
        <mxCell id="kwLEIUsejKFiPvClbxMu-205" value="&lt;span style=&quot;font-size: 11px; background-color: rgb(255, 255, 255);&quot;&gt;id_funcionario&lt;/span&gt;" style="text;html=1;align=center;verticalAlign=middle;resizable=0;points=[];autosize=1;strokeColor=none;fillColor=none;" vertex="1" parent="1">
          <mxGeometry x="-148" y="-353" width="90" height="30" as="geometry" />
        </mxCell>
        <mxCell id="0jXfrChw-r6oneS9u3Ee-111" style="edgeStyle=orthogonalEdgeStyle;rounded=0;orthogonalLoop=1;jettySize=auto;html=1;endArrow=oval;endFill=0;exitX=0.583;exitY=0.056;exitDx=0;exitDy=0;exitPerimeter=0;" edge="1" parent="1">
          <mxGeometry relative="1" as="geometry">
            <mxPoint x="-510" y="-650" as="targetPoint" />
            <Array as="points">
              <mxPoint x="-530" y="-605" />
            </Array>
            <mxPoint x="-540.06" y="-604.96" as="sourcePoint" />
          </mxGeometry>
        </mxCell>
        <mxCell id="0jXfrChw-r6oneS9u3Ee-112" value="ID_Fornecedor" style="edgeLabel;html=1;align=center;verticalAlign=middle;resizable=0;points=[];" connectable="0" vertex="1" parent="0jXfrChw-r6oneS9u3Ee-111">
          <mxGeometry x="0.6804" relative="1" as="geometry">
            <mxPoint x="57" as="offset" />
          </mxGeometry>
        </mxCell>
        <mxCell id="66" value="" style="edgeStyle=none;jumpSize=5;exitX=0.14;exitY=0.004;exitDx=0;exitDy=0;strokeWidth=1;fontSize=12;endArrow=oval;endFill=0;startSize=5;exitPerimeter=0;" edge="1" parent="1" source="2">
          <mxGeometry x="1" y="-28" relative="1" as="geometry">
            <mxPoint x="-655" y="-206.5" as="targetPoint" />
            <mxPoint x="-8" y="-20" as="offset" />
          </mxGeometry>
        </mxCell>
        <mxCell id="3Tj_bvLMt_tm9WLvLGLQ-133" value="crm" style="text;html=1;align=center;verticalAlign=middle;resizable=0;points=[];autosize=1;strokeColor=none;fillColor=none;" vertex="1" parent="1">
          <mxGeometry x="-937.5" y="-253.56" width="40" height="30" as="geometry" />
        </mxCell>
        <mxCell id="UkZEv0jV3Z5FbrsgkqRG-111" value="Realiza" style="rhombus;whiteSpace=wrap;html=1;" vertex="1" parent="1">
          <mxGeometry x="-40" y="-388" width="160" height="80" as="geometry" />
        </mxCell>
        <mxCell id="0jXfrChw-r6oneS9u3Ee-136" style="edgeStyle=orthogonalEdgeStyle;html=1;endArrow=oval;endFill=0;exitX=0.003;exitY=0.377;exitDx=0;exitDy=0;exitPerimeter=0;" edge="1" parent="1">
          <mxGeometry relative="1" as="geometry">
            <mxPoint x="-1021" y="28.000000000000114" as="targetPoint" />
            <mxPoint x="-984.46" y="28.389999999999986" as="sourcePoint" />
            <Array as="points" />
          </mxGeometry>
        </mxCell>
        <mxCell id="3Tj_bvLMt_tm9WLvLGLQ-135" value="Id_prescricao" style="text;html=1;align=center;verticalAlign=middle;resizable=0;points=[];autosize=1;strokeColor=none;fillColor=none;" vertex="1" parent="1">
          <mxGeometry x="-952.5" y="-233.56" width="100" height="30" as="geometry" />
        </mxCell>
        <mxCell id="YscDw6zFbjl7nn_wglCq-114" value="(1,1)" style="text;html=1;align=center;verticalAlign=middle;resizable=0;points=[];autosize=1;strokeColor=none;fillColor=none;" vertex="1" parent="1">
          <mxGeometry x="30" y="-146.5" width="50" height="30" as="geometry" />
        </mxCell>
        <mxCell id="kwLEIUsejKFiPvClbxMu-202" style="edgeStyle=none;html=1;endArrow=oval;endFill=0;exitX=0;exitY=0.75;exitDx=0;exitDy=0;" edge="1" parent="1">
          <mxGeometry relative="1" as="geometry">
            <mxPoint x="-325" y="-326.75" as="targetPoint" />
            <mxPoint x="-340" y="-381.5" as="sourcePoint" />
            <Array as="points">
              <mxPoint x="-340" y="-327.5" />
            </Array>
          </mxGeometry>
        </mxCell>
        <mxCell id="0jXfrChw-r6oneS9u3Ee-134" style="edgeStyle=none;html=1;exitX=0;exitY=0.75;exitDx=0;exitDy=0;endArrow=oval;endFill=0;" edge="1" parent="1" source="0jXfrChw-r6oneS9u3Ee-122">
          <mxGeometry relative="1" as="geometry">
            <mxPoint x="-1020" y="47" as="targetPoint" />
            <mxPoint x="-810" y="63.999999999999886" as="sourcePoint" />
            <Array as="points">
              <mxPoint x="-1000" y="47" />
            </Array>
          </mxGeometry>
        </mxCell>
        <mxCell id="48" value="" style="edgeStyle=none;exitX=1;exitY=0.25;exitDx=0;exitDy=0;endArrow=oval;endFill=0;" edge="1" parent="1">
          <mxGeometry relative="1" as="geometry">
            <mxPoint x="-450" y="-140" as="targetPoint" />
            <mxPoint x="-500" y="-140" as="sourcePoint" />
          </mxGeometry>
        </mxCell>
        <mxCell id="49" value="Data_Venda" style="edgeLabel;align=center;verticalAlign=middle;resizable=0;points=[];fontSize=12;" vertex="1" connectable="0" parent="48">
          <mxGeometry x="-0.5231" y="-3" relative="1" as="geometry">
            <mxPoint x="81" y="-3" as="offset" />
          </mxGeometry>
        </mxCell>
        <mxCell id="3Tj_bvLMt_tm9WLvLGLQ-206" value="" style="edgeStyle=orthogonalEdgeStyle;rounded=0;orthogonalLoop=1;jettySize=auto;html=1;exitX=0;exitY=0.5;exitDx=0;exitDy=0;entryX=0.5;entryY=0;entryDx=0;entryDy=0;endArrow=none;endFill=0;" edge="1" parent="1" source="3" target="3Tj_bvLMt_tm9WLvLGLQ-199">
          <mxGeometry relative="1" as="geometry">
            <mxPoint x="-645" y="-560" as="sourcePoint" />
            <mxPoint x="-515" y="-145" as="targetPoint" />
          </mxGeometry>
        </mxCell>
        <mxCell id="3Tj_bvLMt_tm9WLvLGLQ-207" value="(1, n)" style="edgeLabel;html=1;align=center;verticalAlign=middle;resizable=0;points=[];" connectable="0" vertex="1" parent="3Tj_bvLMt_tm9WLvLGLQ-206">
          <mxGeometry x="-0.8255" y="-1" relative="1" as="geometry">
            <mxPoint x="7" y="-14" as="offset" />
          </mxGeometry>
        </mxCell>
        <mxCell id="0jXfrChw-r6oneS9u3Ee-157" style="edgeStyle=orthogonalEdgeStyle;rounded=0;orthogonalLoop=1;jettySize=auto;html=1;exitX=0.5;exitY=0;exitDx=0;exitDy=0;entryX=0.5;entryY=1;entryDx=0;entryDy=0;endArrow=none;endFill=0;" edge="1" parent="1" source="0jXfrChw-r6oneS9u3Ee-155" target="3Tj_bvLMt_tm9WLvLGLQ-190">
          <mxGeometry relative="1" as="geometry" />
        </mxCell>
        <mxCell id="3Tj_bvLMt_tm9WLvLGLQ-185" value="id_tipo_servico" style="text;html=1;align=center;verticalAlign=middle;resizable=0;points=[];autosize=1;strokeColor=none;fillColor=none;" vertex="1" parent="1">
          <mxGeometry x="375" y="-65" width="100" height="30" as="geometry" />
        </mxCell>
        <mxCell id="UkZEv0jV3Z5FbrsgkqRG-110" style="edgeStyle=orthogonalEdgeStyle;rounded=0;orthogonalLoop=1;jettySize=auto;html=1;exitX=0.5;exitY=1;exitDx=0;exitDy=0;entryX=0.5;entryY=0;entryDx=0;entryDy=0;endArrow=none;endFill=0;" edge="1" parent="1" source="UkZEv0jV3Z5FbrsgkqRG-111" target="3Tj_bvLMt_tm9WLvLGLQ-190">
          <mxGeometry relative="1" as="geometry">
            <Array as="points">
              <mxPoint x="40" y="-308" />
              <mxPoint x="40" y="-231" />
            </Array>
          </mxGeometry>
        </mxCell>
        <mxCell id="96" value="" style="edgeStyle=elbowEdgeStyle;endArrow=oval;endFill=0;" edge="1" parent="1">
          <mxGeometry relative="1" as="geometry">
            <mxPoint x="-180" y="-485" as="targetPoint" />
            <mxPoint x="-200" y="-455" as="sourcePoint" />
            <Array as="points">
              <mxPoint x="-200" y="-465" />
            </Array>
          </mxGeometry>
        </mxCell>
        <mxCell id="97" value="telefone" style="edgeLabel;align=center;verticalAlign=middle;resizable=0;points=[];" vertex="1" connectable="0" parent="96">
          <mxGeometry x="0.5027" relative="1" as="geometry">
            <mxPoint x="15" y="-21" as="offset" />
          </mxGeometry>
        </mxCell>
        <mxCell id="kwLEIUsejKFiPvClbxMu-182" value="" style="edgeStyle=orthogonalEdgeStyle;rounded=0;orthogonalLoop=1;jettySize=auto;html=1;exitX=0.5;exitY=0;exitDx=0;exitDy=0;entryX=0.5;entryY=1;entryDx=0;entryDy=0;endArrow=none;endFill=0;" edge="1" parent="1" source="2" target="3Tj_bvLMt_tm9WLvLGLQ-201">
          <mxGeometry relative="1" as="geometry">
            <mxPoint x="-425" y="-165" as="sourcePoint" />
            <mxPoint x="-185" y="-337" as="targetPoint" />
            <Array as="points">
              <mxPoint x="-590" y="-232" />
              <mxPoint x="-550" y="-232" />
              <mxPoint x="-550" y="-293" />
            </Array>
          </mxGeometry>
        </mxCell>
        <mxCell id="0jXfrChw-r6oneS9u3Ee-155" value="Consulta" style="rhombus;whiteSpace=wrap;html=1;" vertex="1" parent="1">
          <mxGeometry x="-60" y="-75" width="140" height="80" as="geometry" />
        </mxCell>
        <mxCell id="kwLEIUsejKFiPvClbxMu-197" style="edgeStyle=none;html=1;endArrow=oval;endFill=0;" edge="1" parent="1">
          <mxGeometry relative="1" as="geometry">
            <mxPoint x="-239" y="-325.5" as="targetPoint" />
            <mxPoint x="-254" y="-365" as="sourcePoint" />
            <Array as="points">
              <mxPoint x="-254" y="-325.5" />
            </Array>
          </mxGeometry>
        </mxCell>
        <mxCell id="3Tj_bvLMt_tm9WLvLGLQ-187" value="preco" style="text;html=1;align=center;verticalAlign=middle;resizable=0;points=[];autosize=1;strokeColor=none;fillColor=none;" vertex="1" parent="1">
          <mxGeometry x="390" y="-25" width="50" height="30" as="geometry" />
        </mxCell>
        <mxCell id="3Tj_bvLMt_tm9WLvLGLQ-190" value="&lt;b&gt;Serviço&lt;/b&gt;" style="rounded=1;whiteSpace=wrap;html=1;" vertex="1" parent="1">
          <mxGeometry x="-50" y="-231.5" width="180" height="90" as="geometry" />
        </mxCell>
        <mxCell id="3Tj_bvLMt_tm9WLvLGLQ-200" style="edgeStyle=orthogonalEdgeStyle;rounded=0;orthogonalLoop=1;jettySize=auto;html=1;exitX=0.5;exitY=0;exitDx=0;exitDy=0;entryX=0;entryY=0.25;entryDx=0;entryDy=0;endArrow=none;endFill=0;" edge="1" parent="1" source="3Tj_bvLMt_tm9WLvLGLQ-201" target="108">
          <mxGeometry relative="1" as="geometry" />
        </mxCell>
        <mxCell id="3Tj_bvLMt_tm9WLvLGLQ-202" value="(1,n)" style="text;html=1;align=center;verticalAlign=middle;resizable=0;points=[];autosize=1;strokeColor=none;fillColor=none;" vertex="1" parent="1">
          <mxGeometry x="-380" y="-455" width="50" height="30" as="geometry" />
        </mxCell>
        <mxCell id="3Tj_bvLMt_tm9WLvLGLQ-161" style="edgeStyle=orthogonalEdgeStyle;rounded=0;orthogonalLoop=1;jettySize=auto;html=1;exitX=0.994;exitY=0.186;exitDx=0;exitDy=0;endArrow=oval;endFill=1;exitPerimeter=0;" edge="1" parent="1">
          <mxGeometry relative="1" as="geometry">
            <mxPoint x="775" y="920" as="targetPoint" />
            <Array as="points">
              <mxPoint x="745" y="927" />
              <mxPoint x="745" y="915" />
            </Array>
          </mxGeometry>
        </mxCell>
        <mxCell id="kwLEIUsejKFiPvClbxMu-183" value="" style="edgeStyle=none;endArrow=oval;endFill=0;" edge="1" parent="1">
          <mxGeometry relative="1" as="geometry">
            <mxPoint x="-448" y="-170" as="targetPoint" />
            <Array as="points" />
            <mxPoint x="-504" y="-168" as="sourcePoint" />
          </mxGeometry>
        </mxCell>
        <mxCell id="3Tj_bvLMt_tm9WLvLGLQ-134" value="paciente" style="text;html=1;align=center;verticalAlign=middle;resizable=0;points=[];autosize=1;strokeColor=none;fillColor=none;" vertex="1" parent="1">
          <mxGeometry x="-942.5" y="-213.55999999999995" width="70" height="30" as="geometry" />
        </mxCell>
        <mxCell id="QC1EbUprVl7dpRZCjpVZ-170" value="(1,n)" style="text;html=1;align=center;verticalAlign=middle;resizable=0;points=[];autosize=1;strokeColor=none;fillColor=none;" vertex="1" parent="1">
          <mxGeometry x="-1345" y="-57.059999999999945" width="50" height="30" as="geometry" />
        </mxCell>
        <mxCell id="3Tj_bvLMt_tm9WLvLGLQ-186" value="servico" style="text;html=1;align=center;verticalAlign=middle;resizable=0;points=[];autosize=1;strokeColor=none;fillColor=none;" vertex="1" parent="1">
          <mxGeometry x="380" y="-40" width="60" height="30" as="geometry" />
        </mxCell>
        <mxCell id="3Tj_bvLMt_tm9WLvLGLQ-137" style="edgeStyle=orthogonalEdgeStyle;rounded=0;orthogonalLoop=1;jettySize=auto;html=1;exitX=1;exitY=0.5;exitDx=0;exitDy=0;endArrow=oval;endFill=1;" edge="1" parent="1" source="3Tj_bvLMt_tm9WLvLGLQ-128" target="3Tj_bvLMt_tm9WLvLGLQ-135">
          <mxGeometry relative="1" as="geometry">
            <mxPoint x="-942.5" y="-218.56" as="targetPoint" />
            <mxPoint x="-967.5" y="-218.56" as="sourcePoint" />
            <Array as="points">
              <mxPoint x="-977.5" y="-223.56" />
            </Array>
          </mxGeometry>
        </mxCell>
        <mxCell id="3Tj_bvLMt_tm9WLvLGLQ-201" value="Realiza" style="rhombus;whiteSpace=wrap;html=1;" vertex="1" parent="1">
          <mxGeometry x="-620" y="-373" width="180" height="80" as="geometry" />
        </mxCell>
        <mxCell id="3Tj_bvLMt_tm9WLvLGLQ-195" value="ID_farmaceutico" style="text;html=1;align=center;verticalAlign=middle;resizable=0;points=[];autosize=1;strokeColor=none;fillColor=none;" vertex="1" parent="1">
          <mxGeometry x="-700" y="-239.5" width="110" height="30" as="geometry" />
        </mxCell>
        <mxCell id="Qk55z1rNBs9D-JOMFlBT-114" value="descricao" style="text;html=1;align=center;verticalAlign=middle;resizable=0;points=[];autosize=1;strokeColor=none;fillColor=none;" vertex="1" parent="1">
          <mxGeometry x="-942.5" y="-189.55999999999995" width="80" height="30" as="geometry" />
        </mxCell>
        <mxCell id="3Tj_bvLMt_tm9WLvLGLQ-188" value="descricao" style="text;html=1;align=center;verticalAlign=middle;resizable=0;points=[];autosize=1;strokeColor=none;fillColor=none;" vertex="1" parent="1">
          <mxGeometry x="380" y="-5" width="70" height="30" as="geometry" />
        </mxCell>
        <mxCell id="3Tj_bvLMt_tm9WLvLGLQ-131" value="id_tipo_receita" style="text;html=1;align=center;verticalAlign=middle;resizable=0;points=[];autosize=1;strokeColor=none;fillColor=none;" vertex="1" parent="1">
          <mxGeometry x="-947.5" y="-283.56" width="100" height="30" as="geometry" />
        </mxCell>
        <mxCell id="3Tj_bvLMt_tm9WLvLGLQ-172" style="edgeStyle=orthogonalEdgeStyle;rounded=0;orthogonalLoop=1;jettySize=auto;html=1;exitX=1;exitY=0.279;exitDx=0;exitDy=0;exitPerimeter=0;endArrow=oval;endFill=1;" edge="1" parent="1" source="3Tj_bvLMt_tm9WLvLGLQ-190" target="3Tj_bvLMt_tm9WLvLGLQ-176">
          <mxGeometry relative="1" as="geometry">
            <Array as="points">
              <mxPoint x="159" y="-206.5" />
              <mxPoint x="180" y="-206.5" />
              <mxPoint x="180" y="-211.5" />
            </Array>
            <mxPoint x="149.15999999999985" y="-216.26" as="sourcePoint" />
          </mxGeometry>
        </mxCell>
        <mxCell id="3Tj_bvLMt_tm9WLvLGLQ-176" value="id_servico" style="text;html=1;align=center;verticalAlign=middle;resizable=0;points=[];autosize=1;strokeColor=none;fillColor=none;" vertex="1" parent="1">
          <mxGeometry x="205" y="-226.5" width="80" height="30" as="geometry" />
        </mxCell>
        <mxCell id="0jXfrChw-r6oneS9u3Ee-122" value="&lt;b&gt;Filial&lt;/b&gt;" style="rounded=1;whiteSpace=wrap;html=1;" vertex="1" parent="1">
          <mxGeometry x="-985" y="-6" width="180" height="70" as="geometry" />
        </mxCell>
        <mxCell id="0jXfrChw-r6oneS9u3Ee-160" style="edgeStyle=orthogonalEdgeStyle;rounded=0;orthogonalLoop=1;jettySize=auto;html=1;exitX=1;exitY=0.5;exitDx=0;exitDy=0;entryX=0;entryY=0.5;entryDx=0;entryDy=0;endArrow=none;endFill=0;" edge="1" parent="1" source="0jXfrChw-r6oneS9u3Ee-146" target="3Tj_bvLMt_tm9WLvLGLQ-190">
          <mxGeometry relative="1" as="geometry" />
        </mxCell>
        <mxCell id="0jXfrChw-r6oneS9u3Ee-164" value="(1,n)" style="edgeLabel;html=1;align=center;verticalAlign=middle;resizable=0;points=[];" connectable="0" vertex="1" parent="0jXfrChw-r6oneS9u3Ee-160">
          <mxGeometry x="0.5584" y="-3" relative="1" as="geometry">
            <mxPoint y="-13" as="offset" />
          </mxGeometry>
        </mxCell>
        <mxCell id="3Tj_bvLMt_tm9WLvLGLQ-199" value="Vendido" style="rhombus;whiteSpace=wrap;html=1;" vertex="1" parent="1">
          <mxGeometry x="-825" y="-398" width="180" height="80" as="geometry" />
        </mxCell>
        <mxCell id="0jXfrChw-r6oneS9u3Ee-130" style="edgeStyle=none;html=1;exitX=0.537;exitY=0.975;exitDx=0;exitDy=0;endArrow=oval;endFill=0;exitPerimeter=0;entryX=0.056;entryY=0.393;entryDx=0;entryDy=0;entryPerimeter=0;" edge="1" parent="1">
          <mxGeometry relative="1" as="geometry">
            <mxPoint x="-868.86" y="93.54000000000008" as="targetPoint" />
            <mxPoint x="-870.0000000000001" y="63.999999999999886" as="sourcePoint" />
            <Array as="points" />
          </mxGeometry>
        </mxCell>
        <mxCell id="3Tj_bvLMt_tm9WLvLGLQ-174" style="edgeStyle=orthogonalEdgeStyle;rounded=0;orthogonalLoop=1;jettySize=auto;html=1;endArrow=oval;endFill=0;exitX=1;exitY=0.568;exitDx=0;exitDy=0;exitPerimeter=0;" edge="1" parent="1" source="3Tj_bvLMt_tm9WLvLGLQ-190" target="UkZEv0jV3Z5FbrsgkqRG-108">
          <mxGeometry relative="1" as="geometry">
            <Array as="points">
              <mxPoint x="180" y="-180.5" />
              <mxPoint x="180" y="-171.5" />
            </Array>
            <mxPoint x="151.96000000000004" y="-178.25999999999976" as="sourcePoint" />
            <mxPoint x="199.8900000000001" y="-171.68000000000006" as="targetPoint" />
          </mxGeometry>
        </mxCell>
        <mxCell id="3Tj_bvLMt_tm9WLvLGLQ-142" style="edgeStyle=orthogonalEdgeStyle;rounded=0;orthogonalLoop=1;jettySize=auto;html=1;exitX=0.994;exitY=0.338;exitDx=0;exitDy=0;endArrow=oval;endFill=0;exitPerimeter=0;" edge="1" parent="1" source="3Tj_bvLMt_tm9WLvLGLQ-143" target="3Tj_bvLMt_tm9WLvLGLQ-145">
          <mxGeometry relative="1" as="geometry">
            <mxPoint x="-1190" y="23.72571428571439" as="targetPoint" />
            <Array as="points">
              <mxPoint x="-1250" y="8.440000000000055" />
              <mxPoint x="-1230" y="8.440000000000055" />
              <mxPoint x="-1230" y="13.440000000000055" />
            </Array>
          </mxGeometry>
        </mxCell>
        <mxCell id="0jXfrChw-r6oneS9u3Ee-149" value="" style="edgeStyle=orthogonalEdgeStyle;rounded=0;orthogonalLoop=1;jettySize=auto;html=1;exitX=0.5;exitY=0;exitDx=0;exitDy=0;entryX=0.5;entryY=1;entryDx=0;entryDy=0;endArrow=none;endFill=0;" edge="1" parent="1" source="87" target="0jXfrChw-r6oneS9u3Ee-146">
          <mxGeometry relative="1" as="geometry">
            <mxPoint x="-290" y="-30" as="sourcePoint" />
            <mxPoint x="-70" y="-185" as="targetPoint" />
          </mxGeometry>
        </mxCell>
        <mxCell id="3Tj_bvLMt_tm9WLvLGLQ-180" style="edgeStyle=orthogonalEdgeStyle;rounded=0;orthogonalLoop=1;jettySize=auto;html=1;entryX=-0.006;entryY=0.557;entryDx=0;entryDy=0;entryPerimeter=0;endArrow=oval;endFill=0;exitX=1;exitY=0.724;exitDx=0;exitDy=0;exitPerimeter=0;" edge="1" parent="1" source="3Tj_bvLMt_tm9WLvLGLQ-190">
          <mxGeometry relative="1" as="geometry">
            <Array as="points">
              <mxPoint x="180" y="-166.5" />
              <mxPoint x="180" y="-149.5" />
            </Array>
            <mxPoint x="150" y="-166.5" as="sourcePoint" />
            <mxPoint x="209.57999999999993" y="-149.78999999999996" as="targetPoint" />
          </mxGeometry>
        </mxCell>
        <mxCell id="3Tj_bvLMt_tm9WLvLGLQ-143" value="&lt;b&gt;Tipo receita&lt;br&gt;&lt;/b&gt;" style="rounded=1;whiteSpace=wrap;html=1;" vertex="1" parent="1">
          <mxGeometry x="-1430" y="-31.559999999999945" width="180" height="90" as="geometry" />
        </mxCell>
        <mxCell id="3Tj_bvLMt_tm9WLvLGLQ-153" style="edgeStyle=orthogonalEdgeStyle;rounded=0;orthogonalLoop=1;jettySize=auto;html=1;exitX=1;exitY=0.75;exitDx=0;exitDy=0;endArrow=oval;endFill=0;" edge="1" parent="1" source="3Tj_bvLMt_tm9WLvLGLQ-143" target="3Tj_bvLMt_tm9WLvLGLQ-147">
          <mxGeometry relative="1" as="geometry">
            <mxPoint x="-1220" y="46" as="targetPoint" />
            <Array as="points">
              <mxPoint x="-1240" y="36" />
              <mxPoint x="-1240" y="46" />
            </Array>
          </mxGeometry>
        </mxCell>
        <mxCell id="0jXfrChw-r6oneS9u3Ee-125" style="edgeStyle=none;html=1;exitX=0.5;exitY=1;exitDx=0;exitDy=0;endArrow=oval;endFill=0;align=center;" edge="1" parent="1">
          <mxGeometry relative="1" as="geometry">
            <mxPoint x="-1190" y="-492" as="targetPoint" />
            <mxPoint x="-1260" y="-492.25" as="sourcePoint" />
            <Array as="points">
              <mxPoint x="-1240" y="-492" />
            </Array>
          </mxGeometry>
        </mxCell>
        <mxCell id="0jXfrChw-r6oneS9u3Ee-128" value="Nome_Hospital" style="whiteSpace=wrap;html=1;fillColor=none;strokeColor=none;" vertex="1" parent="1">
          <mxGeometry x="-1200" y="-520.11" width="120" height="20" as="geometry" />
        </mxCell>
        <mxCell id="kwLEIUsejKFiPvClbxMu-204" value="Id_&lt;span style=&quot;font-size: 11px; background-color: rgb(255, 255, 255);&quot;&gt;cargo&lt;/span&gt;" style="text;html=1;align=center;verticalAlign=middle;resizable=0;points=[];autosize=1;strokeColor=none;fillColor=none;" vertex="1" parent="1">
          <mxGeometry x="-365" y="-332" width="70" height="30" as="geometry" />
        </mxCell>
        <mxCell id="3Tj_bvLMt_tm9WLvLGLQ-181" style="edgeStyle=orthogonalEdgeStyle;rounded=0;orthogonalLoop=1;jettySize=auto;html=1;endArrow=oval;endFill=1;" edge="1" parent="1" target="3Tj_bvLMt_tm9WLvLGLQ-185">
          <mxGeometry relative="1" as="geometry">
            <Array as="points">
              <mxPoint x="339" y="-45" />
              <mxPoint x="360" y="-45" />
              <mxPoint x="360" y="-50" />
            </Array>
            <mxPoint x="340" y="-45" as="sourcePoint" />
          </mxGeometry>
        </mxCell>
        <mxCell id="3Tj_bvLMt_tm9WLvLGLQ-141" style="edgeStyle=orthogonalEdgeStyle;rounded=0;orthogonalLoop=1;jettySize=auto;html=1;exitX=0.994;exitY=0.186;exitDx=0;exitDy=0;endArrow=oval;endFill=1;exitPerimeter=0;" edge="1" parent="1" source="3Tj_bvLMt_tm9WLvLGLQ-143" target="3Tj_bvLMt_tm9WLvLGLQ-144">
          <mxGeometry relative="1" as="geometry">
            <mxPoint x="-1200" y="-11.559999999999945" as="targetPoint" />
            <Array as="points">
              <mxPoint x="-1251" y="-5" />
              <mxPoint x="-1230" y="-5" />
              <mxPoint x="-1230" y="-17" />
            </Array>
          </mxGeometry>
        </mxCell>
        <mxCell id="A4WGX2mWT120Y1MOlDbz-114" style="edgeStyle=orthogonalEdgeStyle;rounded=0;orthogonalLoop=1;jettySize=auto;html=1;exitX=0.89;exitY=1.001;exitDx=0;exitDy=0;endArrow=oval;endFill=0;entryX=0.013;entryY=0.667;entryDx=0;entryDy=0;entryPerimeter=0;exitPerimeter=0;" edge="1" parent="1" source="3Tj_bvLMt_tm9WLvLGLQ-128" target="A4WGX2mWT120Y1MOlDbz-116">
          <mxGeometry relative="1" as="geometry">
            <mxPoint x="-997.5" y="-139.55999999999995" as="targetPoint" />
            <Array as="points">
              <mxPoint x="-980" y="-183" />
              <mxPoint x="-980" y="-146" />
            </Array>
          </mxGeometry>
        </mxCell>
        <mxCell id="JHY4PqAcSEw5rTKC_Vk5-152" style="edgeStyle=orthogonalEdgeStyle;rounded=0;orthogonalLoop=1;jettySize=auto;html=1;exitX=0;exitY=0.5;exitDx=0;exitDy=0;endArrow=none;endFill=0;" edge="1" parent="1" source="JHY4PqAcSEw5rTKC_Vk5-154" target="JHY4PqAcSEw5rTKC_Vk5-135">
          <mxGeometry relative="1" as="geometry" />
        </mxCell>
        <mxCell id="3Tj_bvLMt_tm9WLvLGLQ-128" value="&lt;b&gt;Prescrição Medica&lt;br&gt;&lt;/b&gt;" style="rounded=1;whiteSpace=wrap;html=1;" vertex="1" parent="1">
          <mxGeometry x="-1157.5" y="-273.56" width="180" height="90" as="geometry" />
        </mxCell>
        <mxCell id="3Tj_bvLMt_tm9WLvLGLQ-139" style="edgeStyle=orthogonalEdgeStyle;rounded=0;orthogonalLoop=1;jettySize=auto;html=1;exitX=0.99;exitY=0.929;exitDx=0;exitDy=0;endArrow=oval;endFill=0;exitPerimeter=0;" edge="1" parent="1" source="3Tj_bvLMt_tm9WLvLGLQ-128" target="Qk55z1rNBs9D-JOMFlBT-114">
          <mxGeometry relative="1" as="geometry">
            <mxPoint x="-938.8000000000002" y="-173.99" as="targetPoint" />
            <mxPoint x="-956.5" y="-191.55999999999995" as="sourcePoint" />
          </mxGeometry>
        </mxCell>
        <mxCell id="0jXfrChw-r6oneS9u3Ee-162" value="(1,n)" style="text;html=1;align=center;verticalAlign=middle;resizable=0;points=[];autosize=1;strokeColor=none;fillColor=none;" vertex="1" parent="1">
          <mxGeometry x="30" y="-256.5" width="50" height="30" as="geometry" />
        </mxCell>
        <mxCell id="3Tj_bvLMt_tm9WLvLGLQ-177" value="id_funcionario" style="text;html=1;align=center;verticalAlign=middle;resizable=0;points=[];autosize=1;strokeColor=none;fillColor=none;" vertex="1" parent="1">
          <mxGeometry x="200" y="-201.5" width="100" height="30" as="geometry" />
        </mxCell>
        <mxCell id="0jXfrChw-r6oneS9u3Ee-127" value="Endereço" style="whiteSpace=wrap;html=1;fillColor=none;strokeColor=none;align=center;" vertex="1" parent="1">
          <mxGeometry x="-1215" y="-505" width="120" height="20" as="geometry" />
        </mxCell>
        <mxCell id="0jXfrChw-r6oneS9u3Ee-140" value="Faz" style="rhombus;whiteSpace=wrap;html=1;" vertex="1" parent="1">
          <mxGeometry x="-580" y="-25" width="140" height="80" as="geometry" />
        </mxCell>
        <mxCell id="3Tj_bvLMt_tm9WLvLGLQ-138" style="edgeStyle=orthogonalEdgeStyle;rounded=0;orthogonalLoop=1;jettySize=auto;html=1;exitX=0.994;exitY=0.713;exitDx=0;exitDy=0;endArrow=oval;endFill=0;exitPerimeter=0;" edge="1" parent="1" source="3Tj_bvLMt_tm9WLvLGLQ-128" target="3Tj_bvLMt_tm9WLvLGLQ-134">
          <mxGeometry relative="1" as="geometry">
            <mxPoint x="-937.5" y="-183.55999999999995" as="targetPoint" />
            <mxPoint x="-966.5" y="-201.55999999999995" as="sourcePoint" />
          </mxGeometry>
        </mxCell>
        <mxCell id="0jXfrChw-r6oneS9u3Ee-131" value="Nome" style="text;html=1;align=center;verticalAlign=middle;resizable=0;points=[];autosize=1;strokeColor=none;fillColor=none;" vertex="1" parent="1">
          <mxGeometry x="-878.5" y="79" width="60" height="30" as="geometry" />
        </mxCell>
        <mxCell id="3Tj_bvLMt_tm9WLvLGLQ-193" value="(1,n)" style="text;html=1;align=center;verticalAlign=middle;resizable=0;points=[];autosize=1;strokeColor=none;fillColor=none;" vertex="1" parent="1">
          <mxGeometry x="-645" y="-630" width="50" height="30" as="geometry" />
        </mxCell>
        <mxCell id="3Tj_bvLMt_tm9WLvLGLQ-144" value="Id_tipo_receita" style="text;html=1;align=center;verticalAlign=middle;resizable=0;points=[];autosize=1;strokeColor=none;fillColor=none;" vertex="1" parent="1">
          <mxGeometry x="-1205" y="-31.559999999999945" width="100" height="30" as="geometry" />
        </mxCell>
        <mxCell id="UkZEv0jV3Z5FbrsgkqRG-108" value="data_realizacao" style="text;html=1;align=center;verticalAlign=middle;resizable=0;points=[];autosize=1;strokeColor=none;fillColor=none;" vertex="1" parent="1">
          <mxGeometry x="195" y="-183" width="110" height="30" as="geometry" />
        </mxCell>
        <mxCell id="0jXfrChw-r6oneS9u3Ee-135" value="Data_abertura" style="text;html=1;align=center;verticalAlign=middle;resizable=0;points=[];autosize=1;strokeColor=none;fillColor=none;" vertex="1" parent="1">
          <mxGeometry x="-1115" y="32" width="100" height="30" as="geometry" />
        </mxCell>
        <mxCell id="QC1EbUprVl7dpRZCjpVZ-162" value="(n,n)" style="text;html=1;align=center;verticalAlign=middle;resizable=0;points=[];autosize=1;strokeColor=none;fillColor=none;" vertex="1" parent="1">
          <mxGeometry x="-1075" y="-300" width="50" height="30" as="geometry" />
        </mxCell>
        <mxCell id="3Tj_bvLMt_tm9WLvLGLQ-183" style="edgeStyle=orthogonalEdgeStyle;rounded=0;orthogonalLoop=1;jettySize=auto;html=1;exitX=1.002;exitY=0.567;exitDx=0;exitDy=0;exitPerimeter=0;entryX=-0.001;entryY=0.494;entryDx=0;entryDy=0;entryPerimeter=0;endArrow=oval;endFill=0;" edge="1" parent="1" source="3Tj_bvLMt_tm9WLvLGLQ-191" target="3Tj_bvLMt_tm9WLvLGLQ-187">
          <mxGeometry relative="1" as="geometry">
            <Array as="points">
              <mxPoint x="360" y="-19" />
              <mxPoint x="360" y="-10" />
            </Array>
            <mxPoint x="341.68000000000006" y="-18.819999999999936" as="sourcePoint" />
          </mxGeometry>
        </mxCell>
        <mxCell id="3Tj_bvLMt_tm9WLvLGLQ-196" style="edgeStyle=orthogonalEdgeStyle;rounded=0;orthogonalLoop=1;jettySize=auto;html=1;exitX=0.5;exitY=1;exitDx=0;exitDy=0;entryX=0;entryY=0.25;entryDx=0;entryDy=0;endArrow=none;endFill=0;" edge="1" parent="1" source="3Tj_bvLMt_tm9WLvLGLQ-199" target="2">
          <mxGeometry relative="1" as="geometry" />
        </mxCell>
        <mxCell id="3Tj_bvLMt_tm9WLvLGLQ-189" style="edgeStyle=orthogonalEdgeStyle;rounded=0;orthogonalLoop=1;jettySize=auto;html=1;exitX=0.997;exitY=0.69;exitDx=0;exitDy=0;entryX=-0.006;entryY=0.557;entryDx=0;entryDy=0;entryPerimeter=0;endArrow=oval;endFill=0;exitPerimeter=0;" edge="1" parent="1" source="3Tj_bvLMt_tm9WLvLGLQ-191" target="3Tj_bvLMt_tm9WLvLGLQ-188">
          <mxGeometry relative="1" as="geometry">
            <Array as="points">
              <mxPoint x="340" y="-5" />
              <mxPoint x="360" y="-5" />
              <mxPoint x="360" y="12" />
            </Array>
            <mxPoint x="340" y="-10" as="sourcePoint" />
          </mxGeometry>
        </mxCell>
        <mxCell id="kwLEIUsejKFiPvClbxMu-207" value="Nome" style="text;html=1;align=center;verticalAlign=middle;resizable=0;points=[];autosize=1;strokeColor=none;fillColor=none;" vertex="1" parent="1">
          <mxGeometry x="-270" y="-329" width="60" height="30" as="geometry" />
        </mxCell>
        <mxCell id="85" value="" style="edgeStyle=none;endArrow=oval;endFill=0;exitX=1;exitY=0.75;exitDx=0;exitDy=0;" edge="1" parent="1" source="87">
          <mxGeometry relative="1" as="geometry">
            <mxPoint x="-160" y="70" as="targetPoint" />
            <mxPoint x="-193.96000000000004" y="50.000000000000114" as="sourcePoint" />
            <Array as="points">
              <mxPoint x="-200" y="70" />
              <mxPoint x="-190" y="70" />
            </Array>
          </mxGeometry>
        </mxCell>
        <mxCell id="86" value="Data_nascimento" style="edgeLabel;align=center;verticalAlign=middle;resizable=0;points=[];" vertex="1" connectable="0" parent="85">
          <mxGeometry x="0.2885" y="-2" relative="1" as="geometry">
            <mxPoint x="73" y="-3" as="offset" />
          </mxGeometry>
        </mxCell>
        <mxCell id="QC1EbUprVl7dpRZCjpVZ-166" value="" style="edgeStyle=orthogonalEdgeStyle;rounded=0;orthogonalLoop=1;jettySize=auto;html=1;exitX=0.5;exitY=0;exitDx=0;exitDy=0;entryX=0.5;entryY=1;entryDx=0;entryDy=0;endArrow=none;endFill=0;" edge="1" parent="1" source="3Tj_bvLMt_tm9WLvLGLQ-143">
          <mxGeometry relative="1" as="geometry">
            <mxPoint x="-1340.56" y="1.9400000000000546" as="sourcePoint" />
            <mxPoint x="-1340" y="-135.55999999999995" as="targetPoint" />
            <Array as="points" />
          </mxGeometry>
        </mxCell>
        <mxCell id="Qk55z1rNBs9D-JOMFlBT-115" value="" style="edgeStyle=orthogonalEdgeStyle;rounded=0;orthogonalLoop=1;jettySize=auto;html=1;exitX=0.25;exitY=0;exitDx=0;exitDy=0;entryX=1;entryY=0.5;entryDx=0;entryDy=0;endArrow=none;endFill=0;" edge="1" parent="1" source="3" target="kwLEIUsejKFiPvClbxMu-180">
          <mxGeometry relative="1" as="geometry">
            <Array as="points" />
            <mxPoint x="-600" y="-605" as="sourcePoint" />
            <mxPoint x="-960" y="-535" as="targetPoint" />
          </mxGeometry>
        </mxCell>
        <mxCell id="Qk55z1rNBs9D-JOMFlBT-116" style="edgeStyle=orthogonalEdgeStyle;rounded=0;orthogonalLoop=1;jettySize=auto;html=1;exitX=0;exitY=0.5;exitDx=0;exitDy=0;endArrow=none;endFill=0;" edge="1" parent="1" source="kwLEIUsejKFiPvClbxMu-180" target="4">
          <mxGeometry relative="1" as="geometry" />
        </mxCell>
        <mxCell id="kwLEIUsejKFiPvClbxMu-180" value="Fornece" style="rhombus;whiteSpace=wrap;html=1;" vertex="1" parent="1">
          <mxGeometry x="-870" y="-720" width="180" height="80" as="geometry" />
        </mxCell>
        <mxCell id="kwLEIUsejKFiPvClbxMu-208" value="" style="edgeStyle=elbowEdgeStyle;endArrow=oval;endFill=0;elbow=vertical;exitX=0.3;exitY=0.006;exitDx=0;exitDy=0;exitPerimeter=0;" edge="1" parent="1">
          <mxGeometry relative="1" as="geometry">
            <mxPoint x="-282" y="-485" as="targetPoint" />
            <mxPoint x="-303" y="-454.46" as="sourcePoint" />
            <Array as="points">
              <mxPoint x="-292" y="-485" />
            </Array>
          </mxGeometry>
        </mxCell>
        <mxCell id="kwLEIUsejKFiPvClbxMu-210" value="cpf" style="text;html=1;align=center;verticalAlign=middle;resizable=0;points=[];autosize=1;strokeColor=none;fillColor=none;" vertex="1" parent="1">
          <mxGeometry x="-313" y="-522" width="40" height="30" as="geometry" />
        </mxCell>
        <mxCell id="kwLEIUsejKFiPvClbxMu-213" style="edgeStyle=orthogonalEdgeStyle;rounded=0;orthogonalLoop=1;jettySize=auto;html=1;endArrow=oval;endFill=0;" edge="1" parent="1">
          <mxGeometry relative="1" as="geometry">
            <mxPoint x="-480.02" y="-634.02" as="targetPoint" />
            <Array as="points">
              <mxPoint x="-500" y="-634" />
            </Array>
            <mxPoint x="-499.96000000000004" y="-605" as="sourcePoint" />
          </mxGeometry>
        </mxCell>
        <mxCell id="kwLEIUsejKFiPvClbxMu-214" value="ID_Fabricante" style="edgeLabel;html=1;align=center;verticalAlign=middle;resizable=0;points=[];" connectable="0" vertex="1" parent="kwLEIUsejKFiPvClbxMu-213">
          <mxGeometry x="0.6804" relative="1" as="geometry">
            <mxPoint x="48" y="-1" as="offset" />
          </mxGeometry>
        </mxCell>
        <mxCell id="Qk55z1rNBs9D-JOMFlBT-120" style="edgeStyle=orthogonalEdgeStyle;rounded=0;orthogonalLoop=1;jettySize=auto;html=1;exitX=0.5;exitY=0;exitDx=0;exitDy=0;entryX=0.006;entryY=0.898;entryDx=0;entryDy=0;entryPerimeter=0;endArrow=none;endFill=0;" edge="1" parent="1" source="Qk55z1rNBs9D-JOMFlBT-121" target="2">
          <mxGeometry relative="1" as="geometry">
            <mxPoint x="-600" y="27.33000000000004" as="sourcePoint" />
            <mxPoint x="-667.4000000000001" y="-97.33999999999992" as="targetPoint" />
            <Array as="points">
              <mxPoint x="-690" y="-100" />
              <mxPoint x="-679" y="-100" />
            </Array>
          </mxGeometry>
        </mxCell>
        <mxCell id="Qk55z1rNBs9D-JOMFlBT-122" value="" style="edgeStyle=orthogonalEdgeStyle;rounded=0;orthogonalLoop=1;jettySize=auto;html=1;exitX=1;exitY=0.5;exitDx=0;exitDy=0;entryX=0;entryY=0.5;entryDx=0;entryDy=0;endArrow=none;endFill=0;" edge="1" parent="1" source="0jXfrChw-r6oneS9u3Ee-122" target="Qk55z1rNBs9D-JOMFlBT-121">
          <mxGeometry relative="1" as="geometry">
            <mxPoint x="-805" y="29" as="sourcePoint" />
            <mxPoint x="-667" y="-91" as="targetPoint" />
          </mxGeometry>
        </mxCell>
        <mxCell id="Qk55z1rNBs9D-JOMFlBT-121" value="Realiza" style="rhombus;whiteSpace=wrap;html=1;" vertex="1" parent="1">
          <mxGeometry x="-760" y="-10" width="140" height="80" as="geometry" />
        </mxCell>
        <mxCell id="A4WGX2mWT120Y1MOlDbz-111" style="edgeStyle=orthogonalEdgeStyle;rounded=0;orthogonalLoop=1;jettySize=auto;html=1;exitX=1;exitY=0.5;exitDx=0;exitDy=0;endArrow=none;endFill=0;" edge="1" parent="1" source="eocvYtC5DC_iUky7DLq_-108">
          <mxGeometry relative="1" as="geometry">
            <mxPoint x="-1324.9999999999998" y="-213.55999999999995" as="sourcePoint" />
            <Array as="points">
              <mxPoint x="-1220" y="-171" />
              <mxPoint x="-1220" y="-200" />
              <mxPoint x="-1157" y="-200" />
            </Array>
            <mxPoint x="-1157" y="-200" as="targetPoint" />
          </mxGeometry>
        </mxCell>
        <mxCell id="A4WGX2mWT120Y1MOlDbz-113" value="(1,1)" style="edgeLabel;html=1;align=center;verticalAlign=middle;resizable=0;points=[];" connectable="0" vertex="1" parent="A4WGX2mWT120Y1MOlDbz-111">
          <mxGeometry x="0.8231" y="1" relative="1" as="geometry">
            <mxPoint x="-9" y="-12" as="offset" />
          </mxGeometry>
        </mxCell>
        <mxCell id="A4WGX2mWT120Y1MOlDbz-122" style="edgeStyle=orthogonalEdgeStyle;rounded=0;orthogonalLoop=1;jettySize=auto;html=1;exitX=1.004;exitY=0.501;exitDx=0;exitDy=0;entryX=0.5;entryY=0;entryDx=0;entryDy=0;endArrow=none;endFill=0;exitPerimeter=0;" edge="1" parent="1" source="eocvYtC5DC_iUky7DLq_-112" target="3Tj_bvLMt_tm9WLvLGLQ-128">
          <mxGeometry relative="1" as="geometry">
            <Array as="points">
              <mxPoint x="-1067" y="-333" />
            </Array>
            <mxPoint x="-1200" y="-379.5" as="sourcePoint" />
          </mxGeometry>
        </mxCell>
        <mxCell id="Qk55z1rNBs9D-JOMFlBT-124" value="(1,1)" style="text;html=1;align=center;verticalAlign=middle;resizable=0;points=[];autosize=1;strokeColor=none;fillColor=none;strokeWidth=1;fontSize=10;" vertex="1" parent="1">
          <mxGeometry x="-810" y="4" width="40" height="30" as="geometry" />
        </mxCell>
        <mxCell id="kwLEIUsejKFiPvClbxMu-217" style="edgeStyle=orthogonalEdgeStyle;rounded=0;orthogonalLoop=1;jettySize=auto;html=1;endArrow=oval;endFill=0;" edge="1" parent="1">
          <mxGeometry relative="1" as="geometry">
            <mxPoint x="-470" y="-620.01" as="targetPoint" />
            <Array as="points">
              <mxPoint x="-480" y="-605.01" />
              <mxPoint x="-480" y="-620.01" />
            </Array>
            <mxPoint x="-510" y="-605.01" as="sourcePoint" />
          </mxGeometry>
        </mxCell>
        <mxCell id="kwLEIUsejKFiPvClbxMu-218" value="Código_Barras" style="edgeLabel;html=1;align=center;verticalAlign=middle;resizable=0;points=[];" connectable="0" vertex="1" parent="kwLEIUsejKFiPvClbxMu-217">
          <mxGeometry x="0.6804" relative="1" as="geometry">
            <mxPoint x="49" y="-1" as="offset" />
          </mxGeometry>
        </mxCell>
        <mxCell id="A4WGX2mWT120Y1MOlDbz-116" value="Id_hospital" style="text;html=1;align=center;verticalAlign=middle;resizable=0;points=[];autosize=1;strokeColor=none;fillColor=none;" vertex="1" parent="1">
          <mxGeometry x="-957.5" y="-166.5" width="80" height="30" as="geometry" />
        </mxCell>
        <mxCell id="Qk55z1rNBs9D-JOMFlBT-125" value="crm" style="text;html=1;align=center;verticalAlign=middle;resizable=0;points=[];autosize=1;strokeColor=none;fillColor=none;" vertex="1" parent="1">
          <mxGeometry x="-455" y="-225.5" width="40" height="30" as="geometry" />
        </mxCell>
        <mxCell id="Qk55z1rNBs9D-JOMFlBT-126" value="(1,n)" style="text;html=1;align=center;verticalAlign=middle;resizable=0;points=[];autosize=1;strokeColor=none;fillColor=none;" vertex="1" parent="1">
          <mxGeometry x="-700" y="-100" width="50" height="30" as="geometry" />
        </mxCell>
        <mxCell id="Qk55z1rNBs9D-JOMFlBT-129" value="" style="edgeStyle=orthogonalEdgeStyle;rounded=0;orthogonalLoop=1;jettySize=auto;html=1;exitX=0;exitY=0.5;exitDx=0;exitDy=0;endArrow=none;endFill=0;" edge="1" parent="1" target="Qk55z1rNBs9D-JOMFlBT-128">
          <mxGeometry relative="1" as="geometry">
            <mxPoint x="-1070" y="-189.55999999999995" as="targetPoint" />
            <mxPoint x="-680" y="-141.05999999999995" as="sourcePoint" />
            <Array as="points">
              <mxPoint x="-680" y="-130" />
              <mxPoint x="-897" y="-130" />
            </Array>
          </mxGeometry>
        </mxCell>
        <mxCell id="Qk55z1rNBs9D-JOMFlBT-128" value="efetua" style="rhombus;whiteSpace=wrap;html=1;" vertex="1" parent="1">
          <mxGeometry x="-987.5" y="-111.55999999999995" width="180" height="80" as="geometry" />
        </mxCell>
        <mxCell id="Qk55z1rNBs9D-JOMFlBT-130" style="edgeStyle=orthogonalEdgeStyle;rounded=0;orthogonalLoop=1;jettySize=auto;html=1;exitX=0;exitY=0.5;exitDx=0;exitDy=0;entryX=0.531;entryY=1.002;entryDx=0;entryDy=0;entryPerimeter=0;endArrow=none;endFill=0;" edge="1" parent="1" source="Qk55z1rNBs9D-JOMFlBT-128" target="3Tj_bvLMt_tm9WLvLGLQ-128">
          <mxGeometry relative="1" as="geometry" />
        </mxCell>
        <mxCell id="kwLEIUsejKFiPvClbxMu-221" value="Status" style="text;html=1;align=center;verticalAlign=middle;resizable=0;points=[];autosize=1;strokeColor=none;fillColor=none;" vertex="1" parent="1">
          <mxGeometry x="-1060" y="-410" width="60" height="30" as="geometry" />
        </mxCell>
        <mxCell id="eocvYtC5DC_iUky7DLq_-108" value="possui" style="rhombus;whiteSpace=wrap;html=1;" vertex="1" parent="1">
          <mxGeometry x="-1430" y="-211.5" width="180" height="80" as="geometry" />
        </mxCell>
        <mxCell id="kwLEIUsejKFiPvClbxMu-222" style="edgeStyle=orthogonalEdgeStyle;rounded=0;orthogonalLoop=1;jettySize=auto;html=1;endArrow=oval;endFill=0;" edge="1" parent="1">
          <mxGeometry relative="1" as="geometry">
            <mxPoint x="-470" y="-230" as="targetPoint" />
            <mxPoint x="-532" y="-171.5" as="sourcePoint" />
            <Array as="points">
              <mxPoint x="-532" y="-230" />
            </Array>
          </mxGeometry>
        </mxCell>
        <mxCell id="kwLEIUsejKFiPvClbxMu-223" value="&lt;span style=&quot;color: rgb(0, 0, 0); font-family: Helvetica; font-size: 12px; font-style: normal; font-variant-ligatures: normal; font-variant-caps: normal; font-weight: 400; letter-spacing: normal; orphans: 2; text-align: center; text-indent: 0px; text-transform: none; widows: 2; word-spacing: 0px; -webkit-text-stroke-width: 0px; white-space: nowrap; background-color: rgb(255, 255, 255); text-decoration-thickness: initial; text-decoration-style: initial; text-decoration-color: initial; display: inline !important; float: none;&quot;&gt;Receita_Apresentada&lt;/span&gt;" style="text;whiteSpace=wrap;html=1;" vertex="1" parent="1">
          <mxGeometry x="-465" y="-243.5" width="150" height="40" as="geometry" />
        </mxCell>
        <mxCell id="eocvYtC5DC_iUky7DLq_-112" value="possui" style="rhombus;whiteSpace=wrap;html=1;" vertex="1" parent="1">
          <mxGeometry x="-1370" y="-373" width="180" height="80" as="geometry" />
        </mxCell>
        <mxCell id="kwLEIUsejKFiPvClbxMu-224" style="edgeStyle=orthogonalEdgeStyle;rounded=0;orthogonalLoop=1;jettySize=auto;html=1;endArrow=oval;endFill=0;" edge="1" parent="1">
          <mxGeometry relative="1" as="geometry">
            <mxPoint x="-440" y="-188.6199999999999" as="targetPoint" />
            <mxPoint x="-510" y="-171.5" as="sourcePoint" />
            <Array as="points">
              <mxPoint x="-510" y="-188.78999999999996" />
            </Array>
          </mxGeometry>
        </mxCell>
        <mxCell id="kwLEIUsejKFiPvClbxMu-225" value="&lt;span style=&quot;text-align: right; background-color: rgb(255, 255, 255);&quot;&gt;ID_filial&lt;/span&gt;" style="text;html=1;align=center;verticalAlign=middle;resizable=0;points=[];autosize=1;strokeColor=none;fillColor=none;" vertex="1" parent="1">
          <mxGeometry x="-447" y="-203.5" width="60" height="30" as="geometry" />
        </mxCell>
        <mxCell id="eocvYtC5DC_iUky7DLq_-115" style="edgeStyle=none;html=1;exitX=0.5;exitY=1;exitDx=0;exitDy=0;endArrow=oval;endFill=0;" edge="1" parent="1">
          <mxGeometry relative="1" as="geometry">
            <mxPoint x="-1190" y="-510" as="targetPoint" />
            <mxPoint x="-1260" y="-510" as="sourcePoint" />
            <Array as="points">
              <mxPoint x="-1240" y="-509.75" />
            </Array>
          </mxGeometry>
        </mxCell>
        <mxCell id="eocvYtC5DC_iUky7DLq_-116" style="edgeStyle=none;html=1;exitX=0.5;exitY=1;exitDx=0;exitDy=0;endArrow=oval;endFill=1;" edge="1" parent="1">
          <mxGeometry relative="1" as="geometry">
            <mxPoint x="-1190" y="-529.75" as="targetPoint" />
            <mxPoint x="-1260" y="-530" as="sourcePoint" />
            <Array as="points">
              <mxPoint x="-1240" y="-529.75" />
            </Array>
          </mxGeometry>
        </mxCell>
        <mxCell id="K0L_mUC8udoVy3rCwuKF-108" value="(1,1)" style="text;html=1;align=center;verticalAlign=middle;resizable=0;points=[];autosize=1;strokeColor=none;fillColor=none;" vertex="1" parent="1">
          <mxGeometry x="-735" y="-152" width="50" height="30" as="geometry" />
        </mxCell>
        <mxCell id="x4bGVZBUqrX40MsfPA94-108" value="(1,n)" style="text;html=1;align=center;verticalAlign=middle;resizable=0;points=[];autosize=1;strokeColor=none;fillColor=none;" vertex="1" parent="1">
          <mxGeometry x="-1105" y="-182" width="50" height="30" as="geometry" />
        </mxCell>
        <mxCell id="kwLEIUsejKFiPvClbxMu-226" value="Endereço" style="text;html=1;align=center;verticalAlign=middle;resizable=0;points=[];autosize=1;strokeColor=none;fillColor=none;" vertex="1" parent="1">
          <mxGeometry x="-971.5" y="73" width="70" height="30" as="geometry" />
        </mxCell>
        <mxCell id="kwLEIUsejKFiPvClbxMu-228" value="status" style="text;html=1;align=center;verticalAlign=middle;resizable=0;points=[];autosize=1;strokeColor=none;fillColor=none;" vertex="1" parent="1">
          <mxGeometry x="-1073" y="11.720000000000027" width="60" height="30" as="geometry" />
        </mxCell>
        <mxCell id="tRMhv-TmtBIuXHYI4hBU-108" value="fabricante do medicmento" style="rounded=1;whiteSpace=wrap;html=1;" vertex="1" parent="1">
          <mxGeometry x="-458" y="-825" width="120" height="60" as="geometry" />
        </mxCell>
        <mxCell id="tRMhv-TmtBIuXHYI4hBU-109" style="edgeStyle=none;html=1;exitX=0.5;exitY=1;exitDx=0;exitDy=0;endArrow=oval;endFill=0;" edge="1" parent="1">
          <mxGeometry relative="1" as="geometry">
            <mxPoint x="-268" y="-804.75" as="targetPoint" />
            <mxPoint x="-338" y="-805" as="sourcePoint" />
            <Array as="points">
              <mxPoint x="-318" y="-804.75" />
              <mxPoint x="-298" y="-805" />
            </Array>
          </mxGeometry>
        </mxCell>
        <mxCell id="tRMhv-TmtBIuXHYI4hBU-110" value="Nome_fabricante" style="text;html=1;align=center;verticalAlign=middle;resizable=0;points=[];autosize=1;strokeColor=none;fillColor=none;" vertex="1" parent="1">
          <mxGeometry x="-268" y="-820" width="110" height="30" as="geometry" />
        </mxCell>
        <mxCell id="JHY4PqAcSEw5rTKC_Vk5-118" style="edgeStyle=orthogonalEdgeStyle;rounded=0;orthogonalLoop=1;jettySize=auto;html=1;exitX=1;exitY=0.25;exitDx=0;exitDy=0;endArrow=oval;endFill=1;" edge="1" parent="1" source="JHY4PqAcSEw5rTKC_Vk5-109">
          <mxGeometry relative="1" as="geometry">
            <mxPoint x="400" y="-651" as="targetPoint" />
            <Array as="points">
              <mxPoint x="394" y="-651" />
            </Array>
          </mxGeometry>
        </mxCell>
        <mxCell id="JHY4PqAcSEw5rTKC_Vk5-119" style="edgeStyle=orthogonalEdgeStyle;rounded=0;orthogonalLoop=1;jettySize=auto;html=1;exitX=1;exitY=0.5;exitDx=0;exitDy=0;endArrow=oval;endFill=0;" edge="1" parent="1" source="JHY4PqAcSEw5rTKC_Vk5-109" target="JHY4PqAcSEw5rTKC_Vk5-115">
          <mxGeometry relative="1" as="geometry" />
        </mxCell>
        <mxCell id="JHY4PqAcSEw5rTKC_Vk5-109" value="&lt;b&gt;Categoria do Medicamento&lt;/b&gt;" style="rounded=1;whiteSpace=wrap;html=1;" vertex="1" parent="1">
          <mxGeometry x="130" y="-673.75" width="180" height="90" as="geometry" />
        </mxCell>
        <mxCell id="tRMhv-TmtBIuXHYI4hBU-111" style="edgeStyle=none;html=1;endArrow=oval;endFill=1;" edge="1" parent="1">
          <mxGeometry relative="1" as="geometry">
            <mxPoint x="-258" y="-835" as="targetPoint" />
            <mxPoint x="-338" y="-820" as="sourcePoint" />
            <Array as="points">
              <mxPoint x="-308" y="-835" />
            </Array>
          </mxGeometry>
        </mxCell>
        <mxCell id="JHY4PqAcSEw5rTKC_Vk5-114" value="ID_Catedoria" style="text;html=1;align=center;verticalAlign=middle;resizable=0;points=[];autosize=1;strokeColor=none;fillColor=none;" vertex="1" parent="1">
          <mxGeometry x="395" y="-666" width="90" height="30" as="geometry" />
        </mxCell>
        <mxCell id="tRMhv-TmtBIuXHYI4hBU-112" value="id_fabricante" style="text;html=1;align=center;verticalAlign=middle;resizable=0;points=[];autosize=1;strokeColor=none;fillColor=none;" vertex="1" parent="1">
          <mxGeometry x="-258" y="-850" width="90" height="30" as="geometry" />
        </mxCell>
        <mxCell id="JHY4PqAcSEw5rTKC_Vk5-115" value="Nome_categoria" style="text;html=1;align=center;verticalAlign=middle;resizable=0;points=[];autosize=1;strokeColor=none;fillColor=none;" vertex="1" parent="1">
          <mxGeometry x="400" y="-643.75" width="110" height="30" as="geometry" />
        </mxCell>
        <mxCell id="JHY4PqAcSEw5rTKC_Vk5-117" value="Descrição" style="text;html=1;align=center;verticalAlign=middle;resizable=0;points=[];autosize=1;strokeColor=none;fillColor=none;" vertex="1" parent="1">
          <mxGeometry x="392" y="-620" width="80" height="30" as="geometry" />
        </mxCell>
        <mxCell id="VHd-_mRDt4NBWlfszLfK-110" value="" style="edgeStyle=none;jumpSize=5;exitX=0.191;exitY=1.006;exitDx=0;exitDy=0;strokeWidth=1;fontSize=12;endArrow=oval;endFill=0;startSize=5;exitPerimeter=0;" edge="1" parent="1" source="2">
          <mxGeometry x="1" y="-28" relative="1" as="geometry">
            <mxPoint x="-645" y="-62" as="targetPoint" />
            <mxPoint x="-8" y="-20" as="offset" />
            <mxPoint x="-645" y="-26.5" as="sourcePoint" />
          </mxGeometry>
        </mxCell>
        <mxCell id="VHd-_mRDt4NBWlfszLfK-111" value="Desconto" style="text;html=1;align=center;verticalAlign=middle;resizable=0;points=[];autosize=1;strokeColor=none;fillColor=none;" vertex="1" parent="1">
          <mxGeometry x="-680" y="-65" width="70" height="30" as="geometry" />
        </mxCell>
        <mxCell id="tRMhv-TmtBIuXHYI4hBU-114" style="edgeStyle=none;html=1;endArrow=oval;endFill=0;entryX=-0.007;entryY=0.567;entryDx=0;entryDy=0;entryPerimeter=0;exitX=0.842;exitY=1.017;exitDx=0;exitDy=0;exitPerimeter=0;" edge="1" parent="1" source="tRMhv-TmtBIuXHYI4hBU-108" target="tRMhv-TmtBIuXHYI4hBU-115">
          <mxGeometry relative="1" as="geometry">
            <mxPoint x="-288" y="-755" as="targetPoint" />
            <mxPoint x="-328" y="-745" as="sourcePoint" />
            <Array as="points">
              <mxPoint x="-318" y="-758" />
            </Array>
          </mxGeometry>
        </mxCell>
        <mxCell id="tRMhv-TmtBIuXHYI4hBU-115" value="Endereço_Fabricante" style="text;html=1;align=center;verticalAlign=middle;resizable=0;points=[];autosize=1;strokeColor=none;fillColor=none;" vertex="1" parent="1">
          <mxGeometry x="-268" y="-775" width="140" height="30" as="geometry" />
        </mxCell>
        <mxCell id="VHd-_mRDt4NBWlfszLfK-112" value="ID_Serviço" style="text;html=1;align=center;verticalAlign=middle;resizable=0;points=[];autosize=1;strokeColor=none;fillColor=none;" vertex="1" parent="1">
          <mxGeometry x="-452" y="-114.5" width="80" height="30" as="geometry" />
        </mxCell>
        <mxCell id="tRMhv-TmtBIuXHYI4hBU-117" value="Telefone&amp;nbsp;" style="text;html=1;align=center;verticalAlign=middle;resizable=0;points=[];autosize=1;strokeColor=none;fillColor=none;" vertex="1" parent="1">
          <mxGeometry x="-263" y="-797" width="70" height="30" as="geometry" />
        </mxCell>
        <mxCell id="tRMhv-TmtBIuXHYI4hBU-118" style="edgeStyle=none;html=1;endArrow=oval;endFill=0;exitX=0.5;exitY=1;exitDx=0;exitDy=0;" edge="1" parent="1" source="tRMhv-TmtBIuXHYI4hBU-108">
          <mxGeometry relative="1" as="geometry">
            <mxPoint x="-328" y="-735" as="targetPoint" />
            <mxPoint x="-426" y="-748" as="sourcePoint" />
            <Array as="points">
              <mxPoint x="-398" y="-735" />
            </Array>
          </mxGeometry>
        </mxCell>
        <mxCell id="tRMhv-TmtBIuXHYI4hBU-119" value="Email&amp;nbsp;" style="text;html=1;align=center;verticalAlign=middle;resizable=0;points=[];autosize=1;strokeColor=none;fillColor=none;" vertex="1" parent="1">
          <mxGeometry x="-328" y="-750" width="60" height="30" as="geometry" />
        </mxCell>
        <mxCell id="tRMhv-TmtBIuXHYI4hBU-113" style="edgeStyle=none;html=1;exitX=1;exitY=0.75;exitDx=0;exitDy=0;endArrow=oval;endFill=0;" edge="1" parent="1" source="tRMhv-TmtBIuXHYI4hBU-108">
          <mxGeometry relative="1" as="geometry">
            <mxPoint x="-268" y="-780" as="targetPoint" />
            <mxPoint x="-338" y="-790" as="sourcePoint" />
            <Array as="points" />
          </mxGeometry>
        </mxCell>
        <mxCell id="tRMhv-TmtBIuXHYI4hBU-121" style="edgeStyle=none;html=1;endArrow=oval;endFill=0;exitX=0.5;exitY=1;exitDx=0;exitDy=0;" edge="1" parent="1">
          <mxGeometry relative="1" as="geometry">
            <mxPoint x="-318" y="-705" as="targetPoint" />
            <mxPoint x="-418" y="-765" as="sourcePoint" />
            <Array as="points">
              <mxPoint x="-418" y="-733" />
              <mxPoint x="-418" y="-705" />
            </Array>
          </mxGeometry>
        </mxCell>
        <mxCell id="tRMhv-TmtBIuXHYI4hBU-122" value="CNPJ" style="text;html=1;align=center;verticalAlign=middle;resizable=0;points=[];autosize=1;strokeColor=none;fillColor=none;" vertex="1" parent="1">
          <mxGeometry x="-318" y="-720" width="50" height="30" as="geometry" />
        </mxCell>
        <mxCell id="tRMhv-TmtBIuXHYI4hBU-124" value="Status&amp;nbsp;" style="text;html=1;align=center;verticalAlign=middle;resizable=0;points=[];autosize=1;strokeColor=none;fillColor=none;" vertex="1" parent="1">
          <mxGeometry x="-323" y="-690" width="60" height="30" as="geometry" />
        </mxCell>
        <mxCell id="JHY4PqAcSEw5rTKC_Vk5-128" style="edgeStyle=orthogonalEdgeStyle;rounded=0;orthogonalLoop=1;jettySize=auto;html=1;exitX=1;exitY=0.25;exitDx=0;exitDy=0;endArrow=oval;endFill=0;" edge="1" parent="1" source="JHY4PqAcSEw5rTKC_Vk5-122" target="JHY4PqAcSEw5rTKC_Vk5-126">
          <mxGeometry relative="1" as="geometry" />
        </mxCell>
        <mxCell id="JHY4PqAcSEw5rTKC_Vk5-129" style="edgeStyle=orthogonalEdgeStyle;rounded=0;orthogonalLoop=1;jettySize=auto;html=1;exitX=1;exitY=0.5;exitDx=0;exitDy=0;endArrow=oval;endFill=1;" edge="1" parent="1" source="JHY4PqAcSEw5rTKC_Vk5-122" target="JHY4PqAcSEw5rTKC_Vk5-123">
          <mxGeometry relative="1" as="geometry" />
        </mxCell>
        <mxCell id="JHY4PqAcSEw5rTKC_Vk5-130" style="edgeStyle=orthogonalEdgeStyle;rounded=0;orthogonalLoop=1;jettySize=auto;html=1;exitX=1;exitY=0.75;exitDx=0;exitDy=0;endArrow=oval;endFill=0;" edge="1" parent="1" source="JHY4PqAcSEw5rTKC_Vk5-122" target="JHY4PqAcSEw5rTKC_Vk5-124">
          <mxGeometry relative="1" as="geometry" />
        </mxCell>
        <mxCell id="JHY4PqAcSEw5rTKC_Vk5-122" value="&lt;b&gt;Cargo&lt;/b&gt;" style="rounded=1;whiteSpace=wrap;html=1;" vertex="1" parent="1">
          <mxGeometry x="350" y="-498" width="180" height="90" as="geometry" />
        </mxCell>
        <mxCell id="JHY4PqAcSEw5rTKC_Vk5-134" style="edgeStyle=orthogonalEdgeStyle;rounded=0;orthogonalLoop=1;jettySize=auto;html=1;exitX=0.75;exitY=0;exitDx=0;exitDy=0;entryX=-0.009;entryY=0.462;entryDx=0;entryDy=0;entryPerimeter=0;endArrow=oval;endFill=0;" edge="1" parent="1" source="JHY4PqAcSEw5rTKC_Vk5-122" target="JHY4PqAcSEw5rTKC_Vk5-125">
          <mxGeometry relative="1" as="geometry" />
        </mxCell>
        <mxCell id="JHY4PqAcSEw5rTKC_Vk5-123" value="Id_cargo" style="text;html=1;align=center;verticalAlign=middle;resizable=0;points=[];autosize=1;strokeColor=none;fillColor=none;" vertex="1" parent="1">
          <mxGeometry x="565" y="-483" width="70" height="30" as="geometry" />
        </mxCell>
        <mxCell id="JHY4PqAcSEw5rTKC_Vk5-125" value="Descrição_cargo" style="text;html=1;align=center;verticalAlign=middle;resizable=0;points=[];autosize=1;strokeColor=none;fillColor=none;" vertex="1" parent="1">
          <mxGeometry x="530" y="-535" width="110" height="30" as="geometry" />
        </mxCell>
        <mxCell id="JHY4PqAcSEw5rTKC_Vk5-132" style="edgeStyle=orthogonalEdgeStyle;rounded=0;orthogonalLoop=1;jettySize=auto;html=1;exitX=0.75;exitY=1;exitDx=0;exitDy=0;entryX=0.006;entryY=0.719;entryDx=0;entryDy=0;entryPerimeter=0;endArrow=oval;endFill=0;" edge="1" parent="1" source="JHY4PqAcSEw5rTKC_Vk5-122" target="JHY4PqAcSEw5rTKC_Vk5-127">
          <mxGeometry relative="1" as="geometry" />
        </mxCell>
        <mxCell id="JHY4PqAcSEw5rTKC_Vk5-126" value="Salario_Base" style="text;html=1;align=center;verticalAlign=middle;resizable=0;points=[];autosize=1;strokeColor=none;fillColor=none;" vertex="1" parent="1">
          <mxGeometry x="560" y="-505" width="90" height="30" as="geometry" />
        </mxCell>
        <mxCell id="JHY4PqAcSEw5rTKC_Vk5-124" value="Nome_Cargo" style="text;html=1;align=center;verticalAlign=middle;resizable=0;points=[];autosize=1;strokeColor=none;fillColor=none;" vertex="1" parent="1">
          <mxGeometry x="565" y="-455" width="90" height="30" as="geometry" />
        </mxCell>
        <mxCell id="JHY4PqAcSEw5rTKC_Vk5-127" value="Jornada_Semanal" style="text;html=1;align=center;verticalAlign=middle;resizable=0;points=[];autosize=1;strokeColor=none;fillColor=none;" vertex="1" parent="1">
          <mxGeometry x="510" y="-395" width="120" height="30" as="geometry" />
        </mxCell>
        <mxCell id="Eecye712S0yIB1Qe-fV5-109" style="edgeStyle=orthogonalEdgeStyle;rounded=0;orthogonalLoop=1;jettySize=auto;html=1;exitX=0.75;exitY=0;exitDx=0;exitDy=0;endArrow=oval;endFill=1;" edge="1" parent="1" source="JHY4PqAcSEw5rTKC_Vk5-135">
          <mxGeometry relative="1" as="geometry">
            <mxPoint x="-1620" y="-360" as="targetPoint" />
          </mxGeometry>
        </mxCell>
        <mxCell id="Eecye712S0yIB1Qe-fV5-110" value="Id_Medicamento_Prescrito" style="edgeLabel;html=1;align=center;verticalAlign=middle;resizable=0;points=[];" connectable="0" vertex="1" parent="Eecye712S0yIB1Qe-fV5-109">
          <mxGeometry x="0.723" y="1" relative="1" as="geometry">
            <mxPoint x="11" y="-25" as="offset" />
          </mxGeometry>
        </mxCell>
        <mxCell id="JHY4PqAcSEw5rTKC_Vk5-135" value="&lt;b&gt;Medicamentos_Prescritos&lt;/b&gt;" style="rounded=1;whiteSpace=wrap;html=1;" vertex="1" parent="1">
          <mxGeometry x="-1720" y="-308" width="180" height="90" as="geometry" />
        </mxCell>
        <mxCell id="tRMhv-TmtBIuXHYI4hBU-126" value="&lt;span style=&quot;white-space: pre;&quot;&gt;&#x9;&lt;/span&gt;Prescrição" style="text;html=1;align=center;verticalAlign=middle;resizable=0;points=[];autosize=1;strokeColor=none;fillColor=none;" vertex="1" parent="1">
          <mxGeometry x="-1015" y="-141.55999999999995" width="110" height="30" as="geometry" />
        </mxCell>
        <mxCell id="tRMhv-TmtBIuXHYI4hBU-125" style="edgeStyle=orthogonalEdgeStyle;rounded=0;orthogonalLoop=1;jettySize=auto;html=1;exitX=0.75;exitY=1;exitDx=0;exitDy=0;endArrow=oval;endFill=0;entryX=0.013;entryY=0.667;entryDx=0;entryDy=0;entryPerimeter=0;" edge="1" parent="1" source="3Tj_bvLMt_tm9WLvLGLQ-128">
          <mxGeometry relative="1" as="geometry">
            <mxPoint x="-985" y="-129.5" as="targetPoint" />
            <Array as="points">
              <mxPoint x="-1022" y="-166" />
              <mxPoint x="-1009" y="-166" />
              <mxPoint x="-1009" y="-130" />
            </Array>
            <mxPoint x="-1026" y="-166.5" as="sourcePoint" />
          </mxGeometry>
        </mxCell>
        <mxCell id="tRMhv-TmtBIuXHYI4hBU-128" value="id_funcionario" style="text;html=1;align=center;verticalAlign=middle;resizable=0;points=[];autosize=1;strokeColor=none;fillColor=none;" vertex="1" parent="1">
          <mxGeometry x="-947.5" y="-305" width="100" height="30" as="geometry" />
        </mxCell>
        <mxCell id="tRMhv-TmtBIuXHYI4hBU-129" style="edgeStyle=orthogonalEdgeStyle;rounded=0;orthogonalLoop=1;jettySize=auto;html=1;endArrow=oval;endFill=0;exitX=0.75;exitY=0;exitDx=0;exitDy=0;" edge="1" parent="1" source="3Tj_bvLMt_tm9WLvLGLQ-128">
          <mxGeometry relative="1" as="geometry">
            <mxPoint x="-920" y="-310" as="targetPoint" />
            <Array as="points">
              <mxPoint x="-1022" y="-284" />
              <mxPoint x="-1010" y="-284" />
              <mxPoint x="-1010" y="-310" />
              <mxPoint x="-920" y="-310" />
            </Array>
            <mxPoint x="-1015.5" y="-284" as="sourcePoint" />
          </mxGeometry>
        </mxCell>
        <mxCell id="JHY4PqAcSEw5rTKC_Vk5-137" value="Id_Medicamento" style="text;html=1;align=center;verticalAlign=middle;resizable=0;points=[];autosize=1;strokeColor=none;fillColor=none;" vertex="1" parent="1">
          <mxGeometry x="-1870" y="-286.5" width="110" height="30" as="geometry" />
        </mxCell>
        <mxCell id="tRMhv-TmtBIuXHYI4hBU-130" value="Descrição" style="text;html=1;align=center;verticalAlign=middle;resizable=0;points=[];autosize=1;strokeColor=none;fillColor=none;" vertex="1" parent="1">
          <mxGeometry x="-927.5" y="-323.56" width="80" height="30" as="geometry" />
        </mxCell>
        <mxCell id="tRMhv-TmtBIuXHYI4hBU-132" value="Id_Hospital" style="text;html=1;align=center;verticalAlign=middle;resizable=0;points=[];autosize=1;strokeColor=none;fillColor=none;" vertex="1" parent="1">
          <mxGeometry x="-958.5" y="-348" width="80" height="30" as="geometry" />
        </mxCell>
        <mxCell id="tRMhv-TmtBIuXHYI4hBU-131" style="edgeStyle=orthogonalEdgeStyle;rounded=0;orthogonalLoop=1;jettySize=auto;html=1;endArrow=oval;endFill=0;exitX=0.858;exitY=-0.005;exitDx=0;exitDy=0;exitPerimeter=0;" edge="1" parent="1">
          <mxGeometry relative="1" as="geometry">
            <mxPoint x="-957.5" y="-333" as="targetPoint" />
            <Array as="points">
              <mxPoint x="-1030" y="-274" />
              <mxPoint x="-1030" y="-333" />
            </Array>
            <mxPoint x="-1032" y="-273.56" as="sourcePoint" />
          </mxGeometry>
        </mxCell>
        <mxCell id="JHY4PqAcSEw5rTKC_Vk5-146" style="edgeStyle=orthogonalEdgeStyle;rounded=0;orthogonalLoop=1;jettySize=auto;html=1;exitX=0.25;exitY=1;exitDx=0;exitDy=0;entryX=-0.011;entryY=0.626;entryDx=0;entryDy=0;entryPerimeter=0;endArrow=oval;endFill=0;" edge="1" parent="1" source="tRMhv-TmtBIuXHYI4hBU-108" target="tRMhv-TmtBIuXHYI4hBU-124">
          <mxGeometry relative="1" as="geometry" />
        </mxCell>
        <mxCell id="JHY4PqAcSEw5rTKC_Vk5-138" value="Dosagem" style="text;html=1;align=center;verticalAlign=middle;resizable=0;points=[];autosize=1;strokeColor=none;fillColor=none;" vertex="1" parent="1">
          <mxGeometry x="-1770" y="-376.5" width="70" height="30" as="geometry" />
        </mxCell>
        <mxCell id="JHY4PqAcSEw5rTKC_Vk5-147" style="edgeStyle=orthogonalEdgeStyle;rounded=0;orthogonalLoop=1;jettySize=auto;html=1;exitX=0;exitY=0.5;exitDx=0;exitDy=0;entryX=0.417;entryY=0.001;entryDx=0;entryDy=0;entryPerimeter=0;endArrow=none;endFill=0;" edge="1" parent="1" source="tRMhv-TmtBIuXHYI4hBU-108" target="3">
          <mxGeometry relative="1" as="geometry" />
        </mxCell>
        <mxCell id="JHY4PqAcSEw5rTKC_Vk5-139" value="Quantidade" style="text;html=1;align=center;verticalAlign=middle;resizable=0;points=[];autosize=1;strokeColor=none;fillColor=none;" vertex="1" parent="1">
          <mxGeometry x="-1860" y="-248" width="90" height="30" as="geometry" />
        </mxCell>
        <mxCell id="JHY4PqAcSEw5rTKC_Vk5-148" value="Fabrica" style="rhombus;whiteSpace=wrap;html=1;" vertex="1" parent="1">
          <mxGeometry x="-660" y="-797" width="180" height="80" as="geometry" />
        </mxCell>
        <mxCell id="JHY4PqAcSEw5rTKC_Vk5-149" value="(1,n)" style="text;html=1;align=center;verticalAlign=middle;resizable=0;points=[];autosize=1;strokeColor=none;fillColor=none;" vertex="1" parent="1">
          <mxGeometry x="-580" y="-630" width="50" height="30" as="geometry" />
        </mxCell>
        <mxCell id="JHY4PqAcSEw5rTKC_Vk5-140" value="Instucoes_Uso" style="text;html=1;align=center;verticalAlign=middle;resizable=0;points=[];autosize=1;strokeColor=none;fillColor=none;" vertex="1" parent="1">
          <mxGeometry x="-1860" y="-316.5" width="100" height="30" as="geometry" />
        </mxCell>
        <mxCell id="JHY4PqAcSEw5rTKC_Vk5-150" value="(1,n)" style="text;html=1;align=center;verticalAlign=middle;resizable=0;points=[];autosize=1;strokeColor=none;fillColor=none;" vertex="1" parent="1">
          <mxGeometry x="-500" y="-820" width="50" height="30" as="geometry" />
        </mxCell>
        <mxCell id="USz0YzJayjNLmf2wZlzU-109" value="Id_tipo_servico" style="text;whiteSpace=wrap;" vertex="1" parent="1">
          <mxGeometry x="220" y="-136.5" width="110" height="26.5" as="geometry" />
        </mxCell>
        <mxCell id="USz0YzJayjNLmf2wZlzU-108" style="edgeStyle=orthogonalEdgeStyle;rounded=0;orthogonalLoop=1;jettySize=auto;html=1;entryX=-0.006;entryY=0.557;entryDx=0;entryDy=0;entryPerimeter=0;endArrow=oval;endFill=0;exitX=0.75;exitY=1;exitDx=0;exitDy=0;" edge="1" parent="1" source="3Tj_bvLMt_tm9WLvLGLQ-190">
          <mxGeometry relative="1" as="geometry">
            <Array as="points">
              <mxPoint x="140" y="-141" />
              <mxPoint x="140" y="-140" />
              <mxPoint x="170" y="-140" />
              <mxPoint x="170" y="-123" />
            </Array>
            <mxPoint x="130" y="-139.62" as="sourcePoint" />
            <mxPoint x="209.57999999999993" y="-123.40999999999997" as="targetPoint" />
          </mxGeometry>
        </mxCell>
        <mxCell id="JHY4PqAcSEw5rTKC_Vk5-136" value="Id_Prescricao" style="text;html=1;align=center;verticalAlign=middle;resizable=0;points=[];autosize=1;strokeColor=none;fillColor=none;" vertex="1" parent="1">
          <mxGeometry x="-1810" y="-346.5" width="100" height="30" as="geometry" />
        </mxCell>
        <mxCell id="VHd-_mRDt4NBWlfszLfK-126" style="edgeStyle=orthogonalEdgeStyle;html=1;endArrow=oval;endFill=0;exitX=0.003;exitY=0.377;exitDx=0;exitDy=0;exitPerimeter=0;" edge="1" parent="1">
          <mxGeometry relative="1" as="geometry">
            <mxPoint x="-1022" y="5.720000000000141" as="targetPoint" />
            <mxPoint x="-985" y="5.720000000000027" as="sourcePoint" />
            <Array as="points" />
          </mxGeometry>
        </mxCell>
        <mxCell id="VHd-_mRDt4NBWlfszLfK-127" value="Horario_Funcionamento" style="text;html=1;align=center;verticalAlign=middle;resizable=0;points=[];autosize=1;strokeColor=none;fillColor=none;" vertex="1" parent="1">
          <mxGeometry x="-1175" y="-10" width="150" height="30" as="geometry" />
        </mxCell>
        <mxCell id="tRMhv-TmtBIuXHYI4hBU-127" style="edgeStyle=orthogonalEdgeStyle;rounded=0;orthogonalLoop=1;jettySize=auto;html=1;endArrow=oval;endFill=0;exitX=0.858;exitY=-0.005;exitDx=0;exitDy=0;exitPerimeter=0;" edge="1" parent="1" source="3Tj_bvLMt_tm9WLvLGLQ-128">
          <mxGeometry relative="1" as="geometry">
            <mxPoint x="-940" y="-290" as="targetPoint" />
            <Array as="points">
              <mxPoint x="-1003" y="-290" />
            </Array>
            <mxPoint x="-1003" y="-290" as="sourcePoint" />
          </mxGeometry>
        </mxCell>
        <mxCell id="tRMhv-TmtBIuXHYI4hBU-134" value="Pertence" style="rhombus;whiteSpace=wrap;html=1;" vertex="1" parent="1">
          <mxGeometry x="-200" y="-655" width="180" height="80" as="geometry" />
        </mxCell>
        <mxCell id="JHY4PqAcSEw5rTKC_Vk5-155" value="" style="edgeStyle=orthogonalEdgeStyle;rounded=0;orthogonalLoop=1;jettySize=auto;html=1;exitX=0;exitY=0.25;exitDx=0;exitDy=0;endArrow=none;endFill=0;" edge="1" parent="1" source="3Tj_bvLMt_tm9WLvLGLQ-128" target="JHY4PqAcSEw5rTKC_Vk5-154">
          <mxGeometry relative="1" as="geometry">
            <mxPoint x="-1157" y="-251" as="sourcePoint" />
            <mxPoint x="-1540" y="-263" as="targetPoint" />
          </mxGeometry>
        </mxCell>
        <mxCell id="JHY4PqAcSEw5rTKC_Vk5-154" value="Presceve" style="rhombus;whiteSpace=wrap;html=1;" vertex="1" parent="1">
          <mxGeometry x="-1440" y="-302" width="180" height="80" as="geometry" />
        </mxCell>
        <mxCell id="USz0YzJayjNLmf2wZlzU-120" style="edgeStyle=orthogonalEdgeStyle;rounded=0;orthogonalLoop=1;jettySize=auto;html=1;entryX=0;entryY=0.5;entryDx=0;entryDy=0;endArrow=none;endFill=0;exitX=1;exitY=0.5;exitDx=0;exitDy=0;" edge="1" parent="1" source="USz0YzJayjNLmf2wZlzU-111" target="JHY4PqAcSEw5rTKC_Vk5-122">
          <mxGeometry relative="1" as="geometry">
            <mxPoint x="270" y="-409.9523809523811" as="sourcePoint" />
          </mxGeometry>
        </mxCell>
        <mxCell id="USz0YzJayjNLmf2wZlzU-121" style="edgeStyle=orthogonalEdgeStyle;rounded=0;orthogonalLoop=1;jettySize=auto;html=1;exitX=0;exitY=0.5;exitDx=0;exitDy=0;endArrow=none;endFill=0;entryX=0.133;entryY=0.948;entryDx=0;entryDy=0;entryPerimeter=0;" edge="1" parent="1" source="USz0YzJayjNLmf2wZlzU-111" target="tRMhv-TmtBIuXHYI4hBU-144">
          <mxGeometry relative="1" as="geometry">
            <Array as="points" />
            <mxPoint x="133" y="-449.5" as="sourcePoint" />
            <mxPoint x="-160" y="-449" as="targetPoint" />
          </mxGeometry>
        </mxCell>
        <mxCell id="USz0YzJayjNLmf2wZlzU-111" value="Ocupa" style="rhombus;whiteSpace=wrap;html=1;" vertex="1" parent="1">
          <mxGeometry x="35" y="-498" width="160" height="80" as="geometry" />
        </mxCell>
        <mxCell id="JHY4PqAcSEw5rTKC_Vk5-156" style="edgeStyle=orthogonalEdgeStyle;rounded=0;orthogonalLoop=1;jettySize=auto;html=1;exitX=0;exitY=0.75;exitDx=0;exitDy=0;entryX=0.998;entryY=0.538;entryDx=0;entryDy=0;entryPerimeter=0;endArrow=oval;endFill=0;" edge="1" parent="1" source="JHY4PqAcSEw5rTKC_Vk5-135" target="JHY4PqAcSEw5rTKC_Vk5-139">
          <mxGeometry relative="1" as="geometry" />
        </mxCell>
        <mxCell id="JHY4PqAcSEw5rTKC_Vk5-160" style="edgeStyle=orthogonalEdgeStyle;rounded=0;orthogonalLoop=1;jettySize=auto;html=1;exitX=0.5;exitY=0;exitDx=0;exitDy=0;entryX=1;entryY=0.55;entryDx=0;entryDy=0;entryPerimeter=0;endArrow=oval;endFill=0;" edge="1" parent="1" source="JHY4PqAcSEw5rTKC_Vk5-135" target="JHY4PqAcSEw5rTKC_Vk5-138">
          <mxGeometry relative="1" as="geometry">
            <Array as="points">
              <mxPoint x="-1650" y="-308" />
              <mxPoint x="-1650" y="-360" />
            </Array>
          </mxGeometry>
        </mxCell>
        <mxCell id="tRMhv-TmtBIuXHYI4hBU-136" style="edgeStyle=orthogonalEdgeStyle;rounded=0;orthogonalLoop=1;jettySize=auto;html=1;exitX=0;exitY=0.5;exitDx=0;exitDy=0;entryX=1;entryY=0.5;entryDx=0;entryDy=0;endArrow=none;endFill=0;" edge="1" parent="1" source="JHY4PqAcSEw5rTKC_Vk5-109" target="tRMhv-TmtBIuXHYI4hBU-134">
          <mxGeometry relative="1" as="geometry">
            <mxPoint x="48" y="-827.5" as="sourcePoint" />
            <mxPoint x="-64" y="-637.5" as="targetPoint" />
            <Array as="points">
              <mxPoint x="130" y="-622" />
              <mxPoint x="-20" y="-622" />
            </Array>
          </mxGeometry>
        </mxCell>
        <mxCell id="JHY4PqAcSEw5rTKC_Vk5-158" style="edgeStyle=orthogonalEdgeStyle;rounded=0;orthogonalLoop=1;jettySize=auto;html=1;exitX=0;exitY=0.25;exitDx=0;exitDy=0;entryX=0.992;entryY=0.503;entryDx=0;entryDy=0;entryPerimeter=0;endArrow=oval;endFill=0;" edge="1" parent="1" source="JHY4PqAcSEw5rTKC_Vk5-135" target="JHY4PqAcSEw5rTKC_Vk5-140">
          <mxGeometry relative="1" as="geometry" />
        </mxCell>
        <mxCell id="JHY4PqAcSEw5rTKC_Vk5-157" style="edgeStyle=orthogonalEdgeStyle;rounded=0;orthogonalLoop=1;jettySize=auto;html=1;exitX=0;exitY=0.5;exitDx=0;exitDy=0;entryX=1.003;entryY=0.621;entryDx=0;entryDy=0;entryPerimeter=0;endArrow=oval;endFill=0;" edge="1" parent="1" source="JHY4PqAcSEw5rTKC_Vk5-135" target="JHY4PqAcSEw5rTKC_Vk5-137">
          <mxGeometry relative="1" as="geometry" />
        </mxCell>
        <mxCell id="JHY4PqAcSEw5rTKC_Vk5-159" style="edgeStyle=orthogonalEdgeStyle;rounded=0;orthogonalLoop=1;jettySize=auto;html=1;exitX=0.25;exitY=0;exitDx=0;exitDy=0;entryX=1.008;entryY=0.505;entryDx=0;entryDy=0;entryPerimeter=0;endArrow=oval;endFill=0;" edge="1" parent="1" source="JHY4PqAcSEw5rTKC_Vk5-135" target="JHY4PqAcSEw5rTKC_Vk5-136">
          <mxGeometry relative="1" as="geometry" />
        </mxCell>
        <mxCell id="JHY4PqAcSEw5rTKC_Vk5-161" value="(1,n)" style="edgeLabel;html=1;align=center;verticalAlign=middle;resizable=0;points=[];" connectable="0" vertex="1" parent="1">
          <mxGeometry x="-1166.4482808164878" y="-201.49551724137905" as="geometry">
            <mxPoint x="-6" y="-59" as="offset" />
          </mxGeometry>
        </mxCell>
        <mxCell id="JHY4PqAcSEw5rTKC_Vk5-163" value="(1,n)" style="edgeLabel;html=1;align=center;verticalAlign=middle;resizable=0;points=[];" connectable="0" vertex="1" parent="1">
          <mxGeometry x="-1519.9982808164877" y="-262.99551724137905" as="geometry">
            <mxPoint x="-4" y="-8" as="offset" />
          </mxGeometry>
        </mxCell>
        <mxCell id="tRMhv-TmtBIuXHYI4hBU-137" value="(1,n)" style="text;html=1;align=center;verticalAlign=middle;resizable=0;points=[];autosize=1;strokeColor=none;fillColor=none;" vertex="1" parent="1">
          <mxGeometry x="90" y="-646.25" width="50" height="30" as="geometry" />
        </mxCell>
        <mxCell id="tRMhv-TmtBIuXHYI4hBU-139" value="" style="edgeStyle=orthogonalEdgeStyle;rounded=0;orthogonalLoop=1;jettySize=auto;html=1;endArrow=none;endFill=0;entryX=0.998;entryY=0.173;entryDx=0;entryDy=0;exitX=0;exitY=0.5;exitDx=0;exitDy=0;entryPerimeter=0;" edge="1" parent="1" source="tRMhv-TmtBIuXHYI4hBU-134" target="3">
          <mxGeometry relative="1" as="geometry">
            <mxPoint x="-200" y="-614" as="sourcePoint" />
            <mxPoint x="-317.14999999999964" y="-606.97" as="targetPoint" />
            <Array as="points" />
          </mxGeometry>
        </mxCell>
        <mxCell id="JHY4PqAcSEw5rTKC_Vk5-165" value="(n,1)" style="edgeLabel;html=1;align=center;verticalAlign=middle;resizable=0;points=[];" connectable="0" vertex="1" parent="1">
          <mxGeometry x="-1279.9982808164877" y="-171.49551724137916" as="geometry">
            <mxPoint x="834" y="-427" as="offset" />
          </mxGeometry>
        </mxCell>
        <mxCell id="dpLUS6IiWBTbSCUgRMhk-109" style="edgeStyle=orthogonalEdgeStyle;rounded=0;orthogonalLoop=1;jettySize=auto;html=1;exitX=1;exitY=0.5;exitDx=0;exitDy=0;endArrow=oval;endFill=0;" edge="1" parent="1">
          <mxGeometry relative="1" as="geometry">
            <mxPoint x="310" y="-605" as="sourcePoint" />
            <mxPoint x="400" y="-605" as="targetPoint" />
          </mxGeometry>
        </mxCell>
        <mxCell id="tRMhv-TmtBIuXHYI4hBU-140" value="(1,1)" style="text;html=1;align=center;verticalAlign=middle;resizable=0;points=[];autosize=1;strokeColor=none;fillColor=none;" vertex="1" parent="1">
          <mxGeometry x="305" y="-475" width="50" height="30" as="geometry" />
        </mxCell>
        <mxCell id="tRMhv-TmtBIuXHYI4hBU-144" value="(1,n)" style="text;html=1;align=center;verticalAlign=middle;resizable=0;points=[];autosize=1;strokeColor=none;fillColor=none;" vertex="1" parent="1">
          <mxGeometry x="-168" y="-475" width="50" height="30" as="geometry" />
        </mxCell>
      </root>
    </mxGraphModel>
  </diagram>
</mxfile>
